<?xml version="1.0" encoding="UTF-8"?>
<!DOCTYPE svg PUBLIC "-//W3C//DTD SVG 1.1//EN" "http://www.w3.org/Graphics/SVG/1.1/DTD/svg11.dtd">
<svg xmlns="http://www.w3.org/2000/svg" version="1.1" width="512px" height="512px" style="shape-rendering:geometricPrecision; text-rendering:geometricPrecision; image-rendering:optimizeQuality; fill-rule:evenodd; clip-rule:evenodd" xmlns:xlink="http://www.w3.org/1999/xlink">
<g><path style="opacity:0.999" fill="#ededed" d="M 127.5,15.5 C 215.193,15.0183 302.86,15.5183 390.5,17C 436.339,26.4858 468.506,52.6525 487,95.5C 490.922,105.855 493.589,116.522 495,127.5C 495.667,212.833 495.667,298.167 495,383.5C 487.263,432.552 460.763,467.052 415.5,487C 405.145,490.922 394.478,493.589 383.5,495C 298.167,495.667 212.833,495.667 127.5,495C 78.4475,487.263 43.9475,460.763 24,415.5C 20.0779,405.145 17.4113,394.478 16,383.5C 15.3333,298.167 15.3333,212.833 16,127.5C 27.3459,64.321 64.5125,26.9877 127.5,15.5 Z"/></g>
<g><path style="opacity:1" fill="#010101" d="M 258.5,91.5 C 257.503,107.992 257.17,124.658 257.5,141.5C 260.059,141.802 262.393,141.468 264.5,140.5C 298.488,138.298 332.154,133.798 365.5,127C 386.62,128.976 404.453,137.809 419,153.5C 420.457,156.366 420.79,159.366 420,162.5C 411.231,172.601 403.231,183.268 396,194.5C 387.122,213.629 377.956,232.629 368.5,251.5C 371.521,254.686 374.354,258.02 377,261.5C 377.896,264.025 377.396,266.192 375.5,268C 336.186,269.263 297.019,272.096 258,276.5C 256.68,311.082 256.013,345.748 256,380.5C 254.564,406.758 251.231,432.758 246,458.5C 243.737,464.861 240.571,470.694 236.5,476C 235.216,476.684 234.049,476.517 233,475.5C 231.472,472.583 230.139,469.583 229,466.5C 226.679,454.955 225.345,443.289 225,431.5C 224.5,380.501 224.333,329.501 224.5,278.5C 199.602,281.543 174.602,283.21 149.5,283.5C 148.854,287.797 147.354,291.797 145,295.5C 142.757,297.282 140.257,297.782 137.5,297C 132.498,292.329 128.665,286.829 126,280.5C 120.774,249.474 115.44,218.474 110,187.5C 107.178,176.033 101.178,166.699 92,159.5C 90.7093,155.328 91.8759,152.161 95.5,150C 105.927,149.071 115.927,150.738 125.5,155C 128.333,155.167 131.167,155.333 134,155.5C 164.23,152.656 194.396,149.322 224.5,145.5C 224.667,125.164 224.5,104.831 224,84.5C 222.996,69.1381 219.329,54.4714 213,40.5C 210.264,32.6025 212.931,28.6025 221,28.5C 236.188,28.6278 250.188,32.6278 263,40.5C 263.985,42.3659 264.485,44.3659 264.5,46.5C 263.318,53.8955 261.818,61.2289 260,68.5C 258.931,76.1314 258.431,83.7981 258.5,91.5 Z"/></g>
<g><path style="opacity:1" fill="#b3b3b3" d="M 258.5,91.5 C 258.5,107.833 258.5,124.167 258.5,140.5C 260.5,140.5 262.5,140.5 264.5,140.5C 262.393,141.468 260.059,141.802 257.5,141.5C 257.17,124.658 257.503,107.992 258.5,91.5 Z"/></g>
<g><path style="opacity:1" fill="#ececec" d="M 318.5,152.5 C 329.505,152.333 340.505,152.5 351.5,153C 359.198,155.379 361.698,160.546 359,168.5C 354.075,193.198 347.742,217.531 340,241.5C 312.586,244.509 285.253,248.176 258,252.5C 257.5,221.168 257.333,189.835 257.5,158.5C 277.947,156.248 298.28,154.248 318.5,152.5 Z"/></g>
<g><path style="opacity:1" fill="#ececec" d="M 162.5,260.5 C 157.847,261.001 153.514,260.334 149.5,258.5C 147.075,230.766 144.075,203.1 140.5,175.5C 168.264,169.676 196.264,165.343 224.5,162.5C 224.667,193.502 224.5,224.502 224,255.5C 203.63,258.184 183.13,259.85 162.5,260.5 Z"/></g>
<g><path style="opacity:1" fill="#aaaaaa" d="M 149.5,258.5 C 153.514,260.334 157.847,261.001 162.5,260.5C 158.366,261.485 154.032,261.818 149.5,261.5C 149.5,260.5 149.5,259.5 149.5,258.5 Z"/></g>
</svg>
