<?xml version="1.0" encoding="UTF-8"?>
<!DOCTYPE svg PUBLIC "-//W3C//DTD SVG 1.1//EN" "http://www.w3.org/Graphics/SVG/1.1/DTD/svg11.dtd">
<svg xmlns="http://www.w3.org/2000/svg" version="1.1" width="200px" height="200px" style="shape-rendering:geometricPrecision; text-rendering:geometricPrecision; image-rendering:optimizeQuality; fill-rule:evenodd; clip-rule:evenodd" xmlns:xlink="http://www.w3.org/1999/xlink">
<g><path style="opacity:0.998" fill="#222222" d="M 8.5,-0.5 C 69.1667,-0.5 129.833,-0.5 190.5,-0.5C 191.987,0.803551 193.654,1.97022 195.5,3C 196.697,5.01533 198.03,6.84866 199.5,8.5C 199.5,69.1667 199.5,129.833 199.5,190.5C 198.196,191.987 197.03,193.654 196,195.5C 193.985,196.697 192.151,198.03 190.5,199.5C 129.833,199.5 69.1667,199.5 8.5,199.5C 7.01307,198.196 5.3464,197.03 3.5,196C 2.30342,193.985 0.970083,192.151 -0.5,190.5C -0.5,129.833 -0.5,69.1667 -0.5,8.5C 0.803551,7.01307 1.97022,5.3464 3,3.5C 5.01533,2.30342 6.84866,0.970083 8.5,-0.5 Z"/></g>
<g><path style="opacity:1" fill="#ef5f77" d="M 15.5,9.5 C 71.1677,9.33334 126.834,9.50001 182.5,10C 185.583,10.786 187.749,12.6193 189,15.5C 189.5,56.832 189.667,98.1653 189.5,139.5C 129.5,139.5 69.5,139.5 9.5,139.5C 9.33334,98.1653 9.50001,56.832 10,15.5C 11.3597,12.9774 13.193,10.9774 15.5,9.5 Z"/></g>
<g><path style="opacity:1" fill="#de325d" d="M 38.5,14.5 C 79.1667,14.5 119.833,14.5 160.5,14.5C 160.5,55.1667 160.5,95.8333 160.5,136.5C 119.833,136.5 79.1667,136.5 38.5,136.5C 38.5,95.8333 38.5,55.1667 38.5,14.5 Z"/></g>
<g><path style="opacity:1" fill="#fcecef" d="M 89.5,31.5 C 116.037,28.6738 133.871,39.6738 143,64.5C 147.009,89.6538 137.509,107.487 114.5,118C 87.0964,124.877 67.9298,115.377 57,89.5C 51.3823,60.9505 62.2156,41.6172 89.5,31.5 Z"/></g>
<g><path style="opacity:1" fill="#de335e" d="M 93.5,32.5 C 119.611,31.9569 135.778,44.2902 142,69.5C 143.537,95.6094 131.704,111.776 106.5,118C 79.9586,120.121 63.4586,108.287 57,82.5C 55.7797,55.9051 67.9464,39.2384 93.5,32.5 Z"/></g>
<g><path style="opacity:1" fill="#fce8ec" d="M 130.5,90.5 C 131.5,90.5 132.5,90.5 133.5,90.5C 134.12,94.3017 133.286,97.635 131,100.5C 130.502,97.1832 130.335,93.8499 130.5,90.5 Z"/></g>
<g><path style="opacity:1" fill="#fcecef" d="M 65.5,90.5 C 66.5,90.5 67.5,90.5 68.5,90.5C 68.6653,94.1817 68.4986,97.8484 68,101.5C 65.7912,98.211 64.9579,94.5443 65.5,90.5 Z"/></g>
<g><path style="opacity:1" fill="#fdf4f6" d="M 60.5,85.5 C 86.5,85.5 112.5,85.5 138.5,85.5C 138.5,86.5 138.5,87.5 138.5,88.5C 112.5,88.5 86.5,88.5 60.5,88.5C 60.5,87.5 60.5,86.5 60.5,85.5 Z"/></g>
<g><path style="opacity:1" fill="#fefbfc" d="M 69.5,79.5 C 72.5184,79.3354 75.5184,79.502 78.5,80C 79.3081,80.3076 79.9747,80.8076 80.5,81.5C 76.2047,82.6609 71.8713,82.8275 67.5,82C 68.3805,81.2917 69.0472,80.4584 69.5,79.5 Z"/></g>
<g><path style="opacity:1" fill="#fefefe" d="M 86.5,71.5 C 100.837,71.3334 115.171,71.5001 129.5,72C 134.457,73.7445 137.124,77.2445 137.5,82.5C 119.497,82.6666 101.497,82.4999 83.5,82C 81.3457,77.7609 82.3457,74.2609 86.5,71.5 Z"/></g>
<g><path style="opacity:1" fill="#fef6f7" d="M 69.5,68.5 C 72.909,68.2493 76.2423,68.5827 79.5,69.5C 82.2833,72.342 81.9499,74.842 78.5,77C 75.0357,77.8166 71.7024,77.4833 68.5,76C 67.0825,73.2565 67.4159,70.7565 69.5,68.5 Z"/></g>
<g><path style="opacity:1" fill="#fefdfd" d="M 62.5,59.5 C 63.1174,59.6107 63.6174,59.944 64,60.5C 64.4997,67.8258 64.6663,75.1591 64.5,82.5C 63.5,82.5 62.5,82.5 61.5,82.5C 61.201,74.747 61.5343,67.0804 62.5,59.5 Z"/></g>
<g><path style="opacity:1" fill="#fce8ed" d="M 127.5,46.5 C 129.339,47.5077 130.672,49.0077 131.5,51C 130.552,51.4828 129.552,51.6495 128.5,51.5C 128.371,49.7839 128.038,48.1172 127.5,46.5 Z"/></g>
<g><path style="opacity:1" fill="#fef8f9" d="M 90.5,35.5 C 96.5092,35.3338 102.509,35.5005 108.5,36C 109.469,40.7367 109.803,45.57 109.5,50.5C 112.518,50.3354 115.518,50.502 118.5,51C 119,51.5 119.5,52 120,52.5C 121.139,49.4167 122.472,46.4167 124,43.5C 124.87,44.1079 125.37,44.9412 125.5,46C 123.861,50.1128 122.361,54.2795 121,58.5C 118.847,53.4858 115.014,51.4858 109.5,52.5C 109.349,56.314 107.349,57.9807 103.5,57.5C 103.5,58.8333 103.5,60.1667 103.5,61.5C 102.5,61.5 101.5,61.5 100.5,61.5C 99.8333,70.8333 99.1667,70.8333 98.5,61.5C 97.5,61.5 96.5,61.5 95.5,61.5C 95.5,60.1667 95.5,58.8333 95.5,57.5C 93.2776,57.822 91.4443,57.1554 90,55.5C 89.5026,52.854 89.3359,50.1873 89.5,47.5C 86.1501,47.335 82.8168,47.5017 79.5,48C 77.4774,51.7299 75.6441,55.5633 74,59.5C 72.7324,55.8641 71.5658,52.1974 70.5,48.5C 70.8333,47.8333 71.1667,47.1667 71.5,46.5C 72.8064,47.9122 73.6397,49.5789 74,51.5C 75.5442,49.5318 76.7109,47.3651 77.5,45C 81.4862,44.5012 85.4862,44.3345 89.5,44.5C 89.2641,41.3915 89.5975,38.3915 90.5,35.5 Z"/></g>
<g><path style="opacity:1" fill="#ee95ac" d="M 97.5,46.5 C 98.1515,47.0906 98.8182,47.7573 99.5,48.5C 100.182,47.7573 100.849,47.0906 101.5,46.5C 101.5,47.5 101.5,48.5 101.5,49.5C 100.167,49.5 98.8333,49.5 97.5,49.5C 97.5,48.5 97.5,47.5 97.5,46.5 Z"/></g>
<g><path style="opacity:1" fill="#dd315b" d="M 101.5,46.5 C 100.849,47.0906 100.182,47.7573 99.5,48.5C 98.8182,47.7573 98.1515,47.0906 97.5,46.5C 96.5028,46.5299 95.8361,46.0299 95.5,45C 96.7073,43.6998 97.3739,42.1998 97.5,40.5C 98.5,40.5 99.5,40.5 100.5,40.5C 100.5,41.5 100.5,42.5 100.5,43.5C 101.5,43.5 102.5,43.5 103.5,43.5C 103.715,45.1788 103.048,46.1788 101.5,46.5 Z"/></g>
<g><path style="opacity:1" fill="#696969" d="M 139.5,153.5 C 147.167,152.167 154.833,152.167 162.5,153.5C 161.127,153.343 159.793,153.51 158.5,154C 159.056,154.383 159.389,154.883 159.5,155.5C 158.833,155.833 158.167,156.167 157.5,156.5C 157.5,155.5 157.5,154.5 157.5,153.5C 151.5,153.5 145.5,153.5 139.5,153.5 Z"/></g>
<g><path style="opacity:1" fill="#e9e9e9" d="M 24.5,171.5 C 28.2984,172.483 32.2984,172.817 36.5,172.5C 36.5,173.5 36.5,174.5 36.5,175.5C 31.1667,175.5 25.8333,175.5 20.5,175.5C 20.5,168.167 20.5,160.833 20.5,153.5C 25.8333,153.5 31.1667,153.5 36.5,153.5C 36.5,154.5 36.5,155.5 36.5,156.5C 32.5,156.5 28.5,156.5 24.5,156.5C 24.5,158.5 24.5,160.5 24.5,162.5C 28.1667,162.5 31.8333,162.5 35.5,162.5C 35.5,163.833 35.5,165.167 35.5,166.5C 31.8333,166.5 28.1667,166.5 24.5,166.5C 24.5,168.167 24.5,169.833 24.5,171.5 Z"/></g>
<g><path style="opacity:1" fill="#dfdfdf" d="M 48.5,152.5 C 58.6967,152.527 63.5301,157.527 63,167.5C 61.75,170.916 59.5833,173.583 56.5,175.5C 58.4841,176.706 60.4841,176.706 62.5,175.5C 64.4879,176.289 64.8213,177.455 63.5,179C 58.5877,181.626 54.5877,180.626 51.5,176C 42.4521,174.747 38.6187,169.58 40,160.5C 42.0982,156.897 44.9315,154.23 48.5,152.5 Z"/></g>
<g><path style="opacity:1" fill="#7c7c7c" d="M 71.5,153.5 C 70.1667,153.5 68.8333,153.5 67.5,153.5C 67.5,158.5 67.5,163.5 67.5,168.5C 66.5119,163.36 66.1786,158.026 66.5,152.5C 68.4147,152.216 70.0813,152.549 71.5,153.5 Z"/></g>
<g><path style="opacity:1" fill="#e5e5e5" d="M 71.5,153.5 C 71.334,158.844 71.5006,164.177 72,169.5C 74.4973,171.478 77.3307,171.978 80.5,171C 81.1258,170.25 81.6258,169.416 82,168.5C 82.4993,163.511 82.6659,158.511 82.5,153.5C 83.8333,153.5 85.1667,153.5 86.5,153.5C 86.666,158.844 86.4994,164.177 86,169.5C 85.7265,171.329 84.8932,172.829 83.5,174C 77.6369,176.67 72.4703,175.837 68,171.5C 67.5172,170.552 67.3505,169.552 67.5,168.5C 67.5,163.5 67.5,158.5 67.5,153.5C 68.8333,153.5 70.1667,153.5 71.5,153.5 Z"/></g>
<g><path style="opacity:1" fill="#e4e4e4" d="M 97.5,153.5 C 99.4672,153.261 101.301,153.594 103,154.5C 106.406,161.305 109.239,168.305 111.5,175.5C 107.926,176.092 105.926,174.592 105.5,171C 101.789,170.175 98.122,170.341 94.5,171.5C 93.7286,175.181 91.7286,176.181 88.5,174.5C 91.7878,167.595 94.7878,160.595 97.5,153.5 Z"/></g>
<g><path style="opacity:1" fill="#ebebeb" d="M 119.5,171.5 C 122.5,171.5 125.5,171.5 128.5,171.5C 128.5,172.833 128.5,174.167 128.5,175.5C 124.167,175.5 119.833,175.5 115.5,175.5C 115.5,168.167 115.5,160.833 115.5,153.5C 116.5,153.5 117.5,153.5 118.5,153.5C 118.177,159.69 118.51,165.69 119.5,171.5 Z"/></g>
<g><path style="opacity:1" fill="#a2a2a2" d="M 119.5,171.5 C 118.51,165.69 118.177,159.69 118.5,153.5C 117.5,153.5 116.5,153.5 115.5,153.5C 115.5,160.833 115.5,168.167 115.5,175.5C 114.508,168.018 114.175,160.352 114.5,152.5C 116.167,152.5 117.833,152.5 119.5,152.5C 119.5,158.833 119.5,165.167 119.5,171.5 Z"/></g>
<g><path style="opacity:1" fill="#ececec" d="M 132.5,153.5 C 133.833,153.5 135.167,153.5 136.5,153.5C 136.5,160.833 136.5,168.167 136.5,175.5C 135.167,175.5 133.833,175.5 132.5,175.5C 132.5,168.167 132.5,160.833 132.5,153.5 Z"/></g>
<g><path style="opacity:1" fill="#edeeed" d="M 139.5,153.5 C 145.5,153.5 151.5,153.5 157.5,153.5C 157.5,154.5 157.5,155.5 157.5,156.5C 155.167,156.5 152.833,156.5 150.5,156.5C 150.5,162.833 150.5,169.167 150.5,175.5C 149.167,175.5 147.833,175.5 146.5,175.5C 146.5,169.167 146.5,162.833 146.5,156.5C 144.167,156.5 141.833,156.5 139.5,156.5C 139.5,155.5 139.5,154.5 139.5,153.5 Z"/></g>
<g><path style="opacity:1" fill="#e4e4e4" d="M 162.5,153.5 C 164.242,156.643 166.242,159.643 168.5,162.5C 170.667,160.17 172.334,157.503 173.5,154.5C 175.074,153.369 176.741,153.202 178.5,154C 176.127,158.581 173.627,163.081 171,167.5C 170.503,170.146 170.336,172.813 170.5,175.5C 169.167,175.5 167.833,175.5 166.5,175.5C 166.664,172.813 166.497,170.146 166,167.5C 163.567,163.633 161.4,159.633 159.5,155.5C 159.389,154.883 159.056,154.383 158.5,154C 159.793,153.51 161.127,153.343 162.5,153.5 Z"/></g>
<g><path style="opacity:1" fill="#272727" d="M 48.5,156.5 C 58.8891,157.496 61.2224,162.329 55.5,171C 46.6667,172.833 43.1667,169.333 45,160.5C 46.3756,159.295 47.5423,157.962 48.5,156.5 Z"/></g>
<g><path style="opacity:1" fill="#656565" d="M 157.5,156.5 C 155.735,157.461 153.735,157.795 151.5,157.5C 151.823,163.69 151.49,169.69 150.5,175.5C 150.5,169.167 150.5,162.833 150.5,156.5C 152.833,156.5 155.167,156.5 157.5,156.5 Z"/></g>
<g><path style="opacity:1" fill="#363636" d="M 99.5,158.5 C 101.607,161.057 102.941,164.057 103.5,167.5C 101.076,167.808 98.7427,167.474 96.5,166.5C 97.5134,163.812 98.5134,161.146 99.5,158.5 Z"/></g>
<g><path style="opacity:1" fill="#a7a7a7" d="M 24.5,171.5 C 28.8333,171.5 33.1667,171.5 37.5,171.5C 37.7678,173.099 37.4345,174.432 36.5,175.5C 36.5,174.5 36.5,173.5 36.5,172.5C 32.2984,172.817 28.2984,172.483 24.5,171.5 Z"/></g>
</svg>
