<?xml version="1.0" encoding="UTF-8"?>
<!DOCTYPE svg PUBLIC "-//W3C//DTD SVG 1.1//EN" "http://www.w3.org/Graphics/SVG/1.1/DTD/svg11.dtd">
<svg xmlns="http://www.w3.org/2000/svg" version="1.1" width="200px" height="200px" style="shape-rendering:geometricPrecision; text-rendering:geometricPrecision; image-rendering:optimizeQuality; fill-rule:evenodd; clip-rule:evenodd" xmlns:xlink="http://www.w3.org/1999/xlink">
<g><path style="opacity:0.998" fill="#222222" d="M 8.5,-0.5 C 69.1667,-0.5 129.833,-0.5 190.5,-0.5C 191.987,0.803551 193.654,1.97022 195.5,3C 196.697,5.01533 198.03,6.84866 199.5,8.5C 199.5,69.1667 199.5,129.833 199.5,190.5C 198.196,191.987 197.03,193.654 196,195.5C 193.985,196.697 192.151,198.03 190.5,199.5C 129.833,199.5 69.1667,199.5 8.5,199.5C 7.01307,198.196 5.3464,197.03 3.5,196C 2.30342,193.985 0.970083,192.151 -0.5,190.5C -0.5,129.833 -0.5,69.1667 -0.5,8.5C 0.803551,7.01307 1.97022,5.3464 3,3.5C 5.01533,2.30342 6.84866,0.970083 8.5,-0.5 Z"/></g>
<g><path style="opacity:1" fill="#00887a" d="M 138.5,28.5 C 139.043,28.44 139.376,28.1067 139.5,27.5C 133.68,26.1843 128.013,26.1843 122.5,27.5C 113.599,44.9693 104.432,62.3026 95,79.5C 85.7684,62.0381 76.2684,44.7047 66.5,27.5C 61.5,26.1667 56.5,26.1667 51.5,27.5C 61.9598,45.5854 72.2932,63.7521 82.5,82C 73.8397,82.4998 65.1731,82.6664 56.5,82.5C 55.5166,86.2984 55.1832,90.2984 55.5,94.5C 66.5,94.5 77.5,94.5 88.5,94.5C 88.5,98.1667 88.5,101.833 88.5,105.5C 77.8333,105.5 67.1667,105.5 56.5,105.5C 55.5184,108.962 55.185,112.629 55.5,116.5C 66.5,116.5 77.5,116.5 88.5,116.5C 88.5,124.167 88.5,131.833 88.5,139.5C 62.1667,139.5 35.8333,139.5 9.5,139.5C 9.33334,98.1653 9.50001,56.832 10,15.5C 11.1667,13 13,11.1667 15.5,10C 71.5,9.33333 127.5,9.33333 183.5,10C 186,11.1667 187.833,13 189,15.5C 189.5,56.832 189.667,98.1653 189.5,139.5C 160.5,139.5 131.5,139.5 102.5,139.5C 102.5,131.833 102.5,124.167 102.5,116.5C 113.167,116.5 123.833,116.5 134.5,116.5C 134.5,112.833 134.5,109.167 134.5,105.5C 123.833,105.5 113.167,105.5 102.5,105.5C 102.5,101.833 102.5,98.1667 102.5,94.5C 113.167,94.5 123.833,94.5 134.5,94.5C 134.5,90.5 134.5,86.5 134.5,82.5C 125.808,82.8314 117.141,82.498 108.5,81.5C 118.528,63.8162 128.528,46.1496 138.5,28.5 Z"/></g>
<g><path style="opacity:1" fill="#1c4e47" d="M 122.5,27.5 C 128.013,26.1843 133.68,26.1843 139.5,27.5C 139.376,28.1067 139.043,28.44 138.5,28.5C 133.36,27.5119 128.026,27.1786 122.5,27.5 Z"/></g>
<g><path style="opacity:1" fill="#1c4d46" d="M 56.5,82.5 C 56.5,86.1667 56.5,89.8333 56.5,93.5C 67.3464,93.1722 78.0131,93.5056 88.5,94.5C 77.5,94.5 66.5,94.5 55.5,94.5C 55.1832,90.2984 55.5166,86.2984 56.5,82.5 Z"/></g>
<g><path style="opacity:1" fill="#1c4d46" d="M 56.5,105.5 C 56.5,108.833 56.5,112.167 56.5,115.5C 67.3464,115.172 78.0131,115.506 88.5,116.5C 77.5,116.5 66.5,116.5 55.5,116.5C 55.185,112.629 55.5184,108.962 56.5,105.5 Z"/></g>
<g><path style="opacity:1" fill="#dedede" d="M 164.5,154.5 C 168.548,154.395 172.548,154.728 176.5,155.5C 176.509,157.308 176.009,158.975 175,160.5C 172.096,158.773 168.93,158.107 165.5,158.5C 165.297,160.39 165.963,161.89 167.5,163C 171.062,163.739 174.228,165.239 177,167.5C 178.037,173.971 175.204,177.305 168.5,177.5C 164.728,177.417 161.728,175.917 159.5,173C 159.613,171.72 160.28,170.887 161.5,170.5C 164.501,172.844 167.835,173.677 171.5,173C 172.833,171.667 172.833,170.333 171.5,169C 167.553,167.915 164.053,166.081 161,163.5C 159.98,159.553 161.147,156.553 164.5,154.5 Z"/></g>
<g><path style="opacity:1" fill="#868686" d="M 21.5,154.5 C 21.5,161.833 21.5,169.167 21.5,176.5C 22.5,176.5 23.5,176.5 24.5,176.5C 23.4324,177.434 22.099,177.768 20.5,177.5C 20.1746,169.648 20.508,161.982 21.5,154.5 Z"/></g>
<g><path style="opacity:1" fill="#e4e4e4" d="M 21.5,154.5 C 23.288,154.215 24.9547,154.548 26.5,155.5C 28.6667,159.833 30.8333,164.167 33,168.5C 35.5877,164.326 37.921,159.993 40,155.5C 41.6995,154.594 43.5328,154.261 45.5,154.5C 45.5,162.167 45.5,169.833 45.5,177.5C 44.1667,177.5 42.8333,177.5 41.5,177.5C 41.6659,172.489 41.4993,167.489 41,162.5C 39.2224,167.078 36.7224,171.078 33.5,174.5C 30.4239,171.358 28.0906,167.691 26.5,163.5C 26.2172,162.711 25.7172,162.044 25,161.5C 24.5007,166.489 24.3341,171.489 24.5,176.5C 23.5,176.5 22.5,176.5 21.5,176.5C 21.5,169.167 21.5,161.833 21.5,154.5 Z"/></g>
<g><path style="opacity:1" fill="#dfdfdf" d="M 57.5,154.5 C 59.4672,154.261 61.3005,154.594 63,155.5C 66.4057,162.305 69.2391,169.305 71.5,176.5C 68.0504,177.244 66.3838,175.91 66.5,172.5C 62.4862,172.334 58.4862,172.501 54.5,173C 54.074,176.592 52.074,178.092 48.5,177.5C 51.3007,169.766 54.3007,162.1 57.5,154.5 Z"/></g>
<g><path style="opacity:1" fill="#909090" d="M 75.5,154.5 C 75.5,161.833 75.5,169.167 75.5,176.5C 76.8333,176.5 78.1667,176.5 79.5,176.5C 78.0813,177.451 76.4147,177.784 74.5,177.5C 74.1746,169.648 74.508,161.982 75.5,154.5 Z"/></g>
<g><path style="opacity:1" fill="#e2e2e2" d="M 75.5,154.5 C 80.5988,154.175 85.5988,154.675 90.5,156C 94.6683,160.99 94.335,165.656 89.5,170C 90.5792,172.155 91.9126,174.155 93.5,176C 91.8333,176.667 90.1667,176.667 88.5,176C 87.5,174.333 86.5,172.667 85.5,171C 83.5273,170.505 81.5273,170.338 79.5,170.5C 79.5,172.5 79.5,174.5 79.5,176.5C 78.1667,176.5 76.8333,176.5 75.5,176.5C 75.5,169.167 75.5,161.833 75.5,154.5 Z"/></g>
<g><path style="opacity:1" fill="#d6d6d6" d="M 97.5,154.5 C 99.1667,154.5 100.833,154.5 102.5,154.5C 102.335,157.85 102.502,161.183 103,164.5C 106.016,161.651 108.85,158.651 111.5,155.5C 113.421,154.359 115.421,154.192 117.5,155C 114.449,157.714 111.782,160.714 109.5,164C 112.036,168.235 114.702,172.402 117.5,176.5C 115.833,177.833 114.167,177.833 112.5,176.5C 110.333,173.5 108.167,170.5 106,167.5C 102.882,170.07 101.715,173.404 102.5,177.5C 100.856,177.714 99.3561,177.38 98,176.5C 97.5003,169.174 97.3337,161.841 97.5,154.5 Z"/></g>
<g><path style="opacity:1" fill="#e7e7e7" d="M 125.5,172.5 C 129.298,173.483 133.298,173.817 137.5,173.5C 137.5,174.5 137.5,175.5 137.5,176.5C 132.167,176.5 126.833,176.5 121.5,176.5C 121.5,169.167 121.5,161.833 121.5,154.5C 126.833,154.5 132.167,154.5 137.5,154.5C 137.5,155.833 137.5,157.167 137.5,158.5C 133.5,158.5 129.5,158.5 125.5,158.5C 125.5,160.167 125.5,161.833 125.5,163.5C 129.167,163.5 132.833,163.5 136.5,163.5C 136.5,164.833 136.5,166.167 136.5,167.5C 132.833,167.5 129.167,167.5 125.5,167.5C 125.5,169.167 125.5,170.833 125.5,172.5 Z"/></g>
<g><path style="opacity:1" fill="#e8e8e8" d="M 151.5,158.5 C 150.51,164.31 150.177,170.31 150.5,176.5C 149.5,176.5 148.5,176.5 147.5,176.5C 147.823,170.31 147.49,164.31 146.5,158.5C 144.167,158.5 141.833,158.5 139.5,158.5C 139.5,157.167 139.5,155.833 139.5,154.5C 145.833,154.5 152.167,154.5 158.5,154.5C 158.5,155.833 158.5,157.167 158.5,158.5C 156.167,158.5 153.833,158.5 151.5,158.5 Z"/></g>
<g><path style="opacity:1" fill="#272727" d="M 79.5,158.5 C 82.1873,158.336 84.854,158.503 87.5,159C 90.3707,161.84 90.0374,164.174 86.5,166C 84.1902,166.497 81.8568,166.663 79.5,166.5C 79.5,163.833 79.5,161.167 79.5,158.5 Z"/></g>
<g><path style="opacity:1" fill="#aaaaaa" d="M 146.5,158.5 C 147.49,164.31 147.823,170.31 147.5,176.5C 148.5,176.5 149.5,176.5 150.5,176.5C 150.177,170.31 150.51,164.31 151.5,158.5C 151.5,164.833 151.5,171.167 151.5,177.5C 149.833,177.5 148.167,177.5 146.5,177.5C 146.5,171.167 146.5,164.833 146.5,158.5 Z"/></g>
<g><path style="opacity:1" fill="#2d2d2d" d="M 59.5,159.5 C 61.6074,162.057 62.9408,165.057 63.5,168.5C 61.076,168.808 58.7427,168.474 56.5,167.5C 57.9,164.965 58.9,162.298 59.5,159.5 Z"/></g>
<g><path style="opacity:1" fill="#757575" d="M 26.5,163.5 C 25.8333,167.833 25.1667,172.167 24.5,176.5C 24.3341,171.489 24.5007,166.489 25,161.5C 25.7172,162.044 26.2172,162.711 26.5,163.5 Z"/></g>
<g><path style="opacity:1" fill="#757575" d="M 125.5,172.5 C 129.833,172.5 134.167,172.5 138.5,172.5C 138.5,174.167 138.5,175.833 138.5,177.5C 132.642,177.822 126.975,177.489 121.5,176.5C 126.833,176.5 132.167,176.5 137.5,176.5C 137.5,175.5 137.5,174.5 137.5,173.5C 133.298,173.817 129.298,173.483 125.5,172.5 Z"/></g>
</svg>
