<?xml version="1.0" encoding="UTF-8"?>
<!DOCTYPE svg PUBLIC "-//W3C//DTD SVG 1.1//EN" "http://www.w3.org/Graphics/SVG/1.1/DTD/svg11.dtd">
<svg xmlns="http://www.w3.org/2000/svg" version="1.1" width="200px" height="200px" style="shape-rendering:geometricPrecision; text-rendering:geometricPrecision; image-rendering:optimizeQuality; fill-rule:evenodd; clip-rule:evenodd" xmlns:xlink="http://www.w3.org/1999/xlink">
<g><path style="opacity:0.998" fill="#222222" d="M 8.5,-0.5 C 69.1667,-0.5 129.833,-0.5 190.5,-0.5C 191.987,0.803551 193.654,1.97022 195.5,3C 196.697,5.01533 198.03,6.84866 199.5,8.5C 199.5,69.1667 199.5,129.833 199.5,190.5C 198.196,191.987 197.03,193.654 196,195.5C 193.985,196.697 192.151,198.03 190.5,199.5C 129.833,199.5 69.1667,199.5 8.5,199.5C 7.01307,198.196 5.3464,197.03 3.5,196C 2.30342,193.985 0.970083,192.151 -0.5,190.5C -0.5,129.833 -0.5,69.1667 -0.5,8.5C 0.803551,7.01307 1.97022,5.3464 3,3.5C 5.01533,2.30342 6.84866,0.970083 8.5,-0.5 Z"/></g>
<g><path style="opacity:1" fill="#52026d" d="M 15.5,9.5 C 72.2502,9.00822 128.917,9.50822 185.5,11C 187.049,12.214 188.215,13.714 189,15.5C 189.5,56.832 189.667,98.1653 189.5,139.5C 129.5,139.5 69.5,139.5 9.5,139.5C 9.33334,98.1653 9.50001,56.832 10,15.5C 11.3597,12.9774 13.193,10.9774 15.5,9.5 Z"/></g>
<g><path style="opacity:1" fill="#020002" d="M 154.5,63.5 C 151.654,65.4747 149.487,68.1413 148,71.5C 144.902,75.1074 141.402,78.1074 137.5,80.5C 144.246,74.0184 149.246,66.3517 152.5,57.5C 155.965,58.4336 156.298,59.9336 153.5,62C 154.056,62.3826 154.389,62.8826 154.5,63.5 Z"/></g>
<g><path style="opacity:1" fill="#000000" d="M 102.5,59.5 C 103.822,59.33 104.989,59.6634 106,60.5C 106.628,74.7828 105.961,89.1161 104,103.5C 103.667,103.833 103.333,104.167 103,104.5C 102.985,96.8445 103.152,89.1778 103.5,81.5C 98.1667,81.1667 98.1667,80.8333 103.5,80.5C 103.76,73.443 103.427,66.443 102.5,59.5 Z"/></g>
<g><path style="opacity:1" fill="#040005" d="M 35.5,60.5 C 37.6348,60.147 38.9681,60.9803 39.5,63C 38.6706,66.4779 38.0039,69.9779 37.5,73.5C 42.6294,73.719 42.6294,74.3856 37.5,75.5C 38.015,83.3624 37.8483,91.3624 37,99.5C 36.6924,100.308 36.1924,100.975 35.5,101.5C 34.059,100.135 32.7256,98.6349 31.5,97C 32.7932,96.51 34.1266,96.3433 35.5,96.5C 35.7825,92.7036 35.7825,89.0369 35.5,85.5C 32.328,87.2519 29.328,89.2519 26.5,91.5C 25.5,91.1667 24.8333,90.5 24.5,89.5C 28.295,87.7685 31.9617,85.7685 35.5,83.5C 36.4742,81.2573 36.8076,78.924 36.5,76.5C 33.8239,77.0081 31.1572,77.1747 28.5,77C 31.022,75.6591 33.6887,74.8257 36.5,74.5C 36.7166,69.7697 36.3833,65.1031 35.5,60.5 Z"/></g>
<g><path style="opacity:1" fill="#000000" d="M 55.5,63.5 C 57.7224,63.5587 58.7224,64.7253 58.5,67C 57.971,70.541 57.3043,74.041 56.5,77.5C 57.0253,78.1924 57.6919,78.6924 58.5,79C 57.267,80.6977 56.6004,82.6977 56.5,85C 55.6575,92.8213 58.9908,95.488 66.5,93C 67.717,91.3523 68.5503,89.519 69,87.5C 69.3108,89.556 69.8108,91.556 70.5,93.5C 70.2907,94.086 69.9574,94.586 69.5,95C 65.8333,95.6667 62.1667,95.6667 58.5,95C 57.6667,94.1667 56.8333,93.3333 56,92.5C 55.5002,82.8391 55.3335,73.1724 55.5,63.5 Z"/></g>
<g><path style="opacity:1" fill="#000000" d="M 92.5,66.5 C 95.521,65.0135 97.8543,65.8468 99.5,69C 99.1667,69.5 98.8333,70 98.5,70.5C 96.7541,68.7484 94.7541,67.4151 92.5,66.5 Z"/></g>
<g><path style="opacity:1" fill="#020003" d="M 154.5,63.5 C 161.157,71.4981 169.49,76.9981 179.5,80C 175.833,80.6667 172.167,80.6667 168.5,80C 163.462,74.7163 158.795,69.2163 154.5,63.5 Z"/></g>
<g><path style="opacity:1" fill="#010001" d="M 43.5,71.5 C 44.5417,70.2089 45.7083,70.2089 47,71.5C 47.3336,73.8473 47.167,76.1806 46.5,78.5C 48.5988,77.7691 50.5988,77.7691 52.5,78.5C 50.604,79.4656 48.604,79.7989 46.5,79.5C 46.1796,82.8984 46.513,86.2317 47.5,89.5C 48.6199,88.1666 49.9532,87.6666 51.5,88C 49,90.5 46.5,93 44,95.5C 43.5,94.5 43,93.5 42.5,92.5C 44.7426,88.8632 45.7426,84.8632 45.5,80.5C 45.6575,77.1864 44.9908,74.1864 43.5,71.5 Z"/></g>
<g><path style="opacity:1" fill="#030004" d="M 63.5,72.5 C 64.8118,73.1451 65.8118,74.1451 66.5,75.5C 64.2793,76.9575 61.946,77.7908 59.5,78C 61.4641,76.549 62.7974,74.7157 63.5,72.5 Z"/></g>
<g><path style="opacity:1" fill="#000000" d="M 91.5,75.5 C 92.9464,74.3871 94.6131,74.2204 96.5,75C 97.5171,76.0495 97.6838,77.2161 97,78.5C 95.2591,77.2423 93.4258,76.2423 91.5,75.5 Z"/></g>
<g><path style="opacity:1" fill="#010002" d="M 154.5,75.5 C 156.288,75.2148 157.955,75.5481 159.5,76.5C 155.335,78.3517 151.002,78.8517 146.5,78C 149.457,77.7206 152.123,76.8873 154.5,75.5 Z"/></g>
<g><path style="opacity:1" fill="#000000" d="M 114.5,78.5 C 117.482,78.1044 120.149,78.7711 122.5,80.5C 121.667,80.8333 120.833,81.1667 120,81.5C 115.856,80.8355 111.689,80.3355 107.5,80C 110.036,79.8138 112.369,79.3138 114.5,78.5 Z"/></g>
<g><path style="opacity:1" fill="#000000" d="M 137.5,80.5 C 136.998,82.0847 135.998,82.5847 134.5,82C 135.244,80.9614 136.244,80.4614 137.5,80.5 Z"/></g>
<g><path style="opacity:1" fill="#000000" d="M 80.5,83.5 C 83.9758,82.3567 87.6425,82.1901 91.5,83C 87.8203,84.5107 84.1536,84.6774 80.5,83.5 Z"/></g>
<g><path style="opacity:1" fill="#010002" d="M 160.5,82.5 C 162.75,82.1814 164.75,82.6814 166.5,84C 161.53,84.8856 156.53,85.5523 151.5,86C 151.167,86.3333 150.833,86.6667 150.5,87C 151.956,87.4226 152.456,88.2559 152,89.5C 146.011,95.1877 145.178,94.521 149.5,87.5C 146.546,86.8526 143.546,86.686 140.5,87C 147.238,85.6019 153.904,84.1019 160.5,82.5 Z"/></g>
<g><path style="opacity:1" fill="#010001" d="M 157.5,90.5 C 162.71,92.5097 165.21,96.1764 165,101.5C 161.862,98.2084 159.362,94.5418 157.5,90.5 Z"/></g>
<g><path style="opacity:1" fill="#010001" d="M 142.5,95.5 C 146.8,96.3402 151.134,96.5069 155.5,96C 150.627,96.8844 145.96,98.3844 141.5,100.5C 140.316,98.533 140.649,96.8664 142.5,95.5 Z"/></g>
<g><path style="opacity:1" fill="#e5e5e5" d="M 30.5,168.5 C 27.8333,168.5 25.1667,168.5 22.5,168.5C 22.5,170.833 22.5,173.167 22.5,175.5C 21.1667,175.5 19.8333,175.5 18.5,175.5C 18.5,168.167 18.5,160.833 18.5,153.5C 23.1785,153.334 27.8452,153.501 32.5,154C 36.2115,156.513 37.3782,160.013 36,164.5C 34.9817,166.928 33.1483,168.262 30.5,168.5 Z"/></g>
<g><path style="opacity:1" fill="#e9e9e9" d="M 38.5,153.5 C 43.1785,153.334 47.8452,153.501 52.5,154C 56.2115,156.513 57.3782,160.013 56,164.5C 55.3632,166.303 54.1965,167.636 52.5,168.5C 53.8333,170.5 55.1667,172.5 56.5,174.5C 55.277,175.614 53.9437,175.781 52.5,175C 50.9186,173.172 49.5853,171.172 48.5,169C 46.5273,168.505 44.5273,168.338 42.5,168.5C 42.5,170.833 42.5,173.167 42.5,175.5C 41.1667,175.5 39.8333,175.5 38.5,175.5C 38.5,168.167 38.5,160.833 38.5,153.5 Z"/></g>
<g><path style="opacity:1" fill="#dfdfdf" d="M 66.5,152.5 C 73.0427,152.186 77.876,154.852 81,160.5C 86.0041,152.111 92.6708,150.445 101,155.5C 101.617,156.449 101.451,157.282 100.5,158C 97.2858,157.083 93.9525,156.75 90.5,157C 85.2261,160.298 84.2261,164.631 87.5,170C 90.6241,171.687 93.7908,171.854 97,170.5C 97.4955,168.527 97.6621,166.527 97.5,164.5C 98.8333,164.5 100.167,164.5 101.5,164.5C 102.119,174.398 97.4525,177.898 87.5,175C 84.2716,173.437 82.1049,170.937 81,167.5C 77.9157,174.955 72.4157,177.455 64.5,175C 57.9609,171.085 56.1275,165.585 59,158.5C 61.1141,155.879 63.6141,153.879 66.5,152.5 Z"/></g>
<g><path style="opacity:1" fill="#e8e8e8" d="M 114.5,169.5 C 112.735,168.539 110.735,168.205 108.5,168.5C 108.5,170.833 108.5,173.167 108.5,175.5C 107.167,175.5 105.833,175.5 104.5,175.5C 104.5,168.167 104.5,160.833 104.5,153.5C 109.179,153.334 113.845,153.501 118.5,154C 119.931,154.465 121.097,155.299 122,156.5C 123.075,161.091 122.241,165.257 119.5,169C 120.579,171.155 121.913,173.155 123.5,175C 121.833,175.667 120.167,175.667 118.5,175C 117.023,173.188 115.69,171.355 114.5,169.5 Z"/></g>
<g><path style="opacity:1" fill="#ebebeb" d="M 125.5,153.5 C 130.833,153.5 136.167,153.5 141.5,153.5C 141.5,154.5 141.5,155.5 141.5,156.5C 137.5,156.5 133.5,156.5 129.5,156.5C 129.205,158.735 129.539,160.735 130.5,162.5C 133.833,162.5 137.167,162.5 140.5,162.5C 140.5,163.5 140.5,164.5 140.5,165.5C 136.833,165.5 133.167,165.5 129.5,165.5C 129.5,167.833 129.5,170.167 129.5,172.5C 133.833,172.5 138.167,172.5 142.5,172.5C 142.5,173.5 142.5,174.5 142.5,175.5C 136.833,175.5 131.167,175.5 125.5,175.5C 125.5,168.167 125.5,160.833 125.5,153.5 Z"/></g>
<g><path style="opacity:1" fill="#dddddd" d="M 143.5,172.5 C 143.5,172.167 143.5,171.833 143.5,171.5C 143.461,170.244 143.961,169.244 145,168.5C 147.984,171.1 151.484,172.1 155.5,171.5C 155.714,169.856 155.38,168.356 154.5,167C 150.873,166.436 147.707,164.936 145,162.5C 143.064,155.928 145.564,152.595 152.5,152.5C 155.488,152.717 158.155,153.717 160.5,155.5C 160.135,156.902 159.301,157.902 158,158.5C 156.216,157.691 154.383,157.024 152.5,156.5C 149.604,157.024 148.937,158.524 150.5,161C 153.855,162.118 157.022,163.618 160,165.5C 161.602,172.308 158.935,175.641 152,175.5C 148.642,175.727 145.809,174.727 143.5,172.5 Z"/></g>
<g><path style="opacity:1" fill="#e0e0e0" d="M 167.5,152.5 C 171.576,152.121 175.243,153.121 178.5,155.5C 178.081,156.672 177.415,157.672 176.5,158.5C 174.568,157.634 172.568,156.967 170.5,156.5C 167.604,157.024 166.937,158.524 168.5,161C 171.855,162.118 175.022,163.618 178,165.5C 179.458,169.781 178.292,172.947 174.5,175C 171.5,175.667 168.5,175.667 165.5,175C 161.657,173.832 160.824,171.666 163,168.5C 166.716,171.919 170.549,172.252 174.5,169.5C 174.023,168.522 173.357,167.689 172.5,167C 168.938,166.261 165.772,164.761 163,162.5C 161.571,157.783 163.071,154.45 167.5,152.5 Z"/></g>
<g><path style="opacity:1" fill="#717171" d="M 125.5,153.5 C 130.975,152.511 136.642,152.178 142.5,152.5C 142.5,154.167 142.5,155.833 142.5,157.5C 138.5,157.5 134.5,157.5 130.5,157.5C 130.5,159.167 130.5,160.833 130.5,162.5C 129.539,160.735 129.205,158.735 129.5,156.5C 133.5,156.5 137.5,156.5 141.5,156.5C 141.5,155.5 141.5,154.5 141.5,153.5C 136.167,153.5 130.833,153.5 125.5,153.5 Z"/></g>
<g><path style="opacity:1" fill="#858585" d="M 29.5,157.5 C 27.5,157.5 25.5,157.5 23.5,157.5C 23.5,159.833 23.5,162.167 23.5,164.5C 25.5,164.5 27.5,164.5 29.5,164.5C 27.3926,165.468 25.0593,165.802 22.5,165.5C 22.5,162.5 22.5,159.5 22.5,156.5C 25.0593,156.198 27.3926,156.532 29.5,157.5 Z"/></g>
<g><path style="opacity:1" fill="#242424" d="M 29.5,157.5 C 31.7224,157.559 32.7224,158.725 32.5,161C 32.7224,163.275 31.7224,164.441 29.5,164.5C 27.5,164.5 25.5,164.5 23.5,164.5C 23.5,162.167 23.5,159.833 23.5,157.5C 25.5,157.5 27.5,157.5 29.5,157.5 Z"/></g>
<g><path style="opacity:1" fill="#5a5a5a" d="M 49.5,157.5 C 47.5,157.5 45.5,157.5 43.5,157.5C 43.5,159.833 43.5,162.167 43.5,164.5C 45.5,164.5 47.5,164.5 49.5,164.5C 47.3926,165.468 45.0593,165.802 42.5,165.5C 42.5,162.5 42.5,159.5 42.5,156.5C 45.0593,156.198 47.3926,156.532 49.5,157.5 Z"/></g>
<g><path style="opacity:1" fill="#242424" d="M 49.5,157.5 C 51.7224,157.559 52.7224,158.725 52.5,161C 52.7224,163.275 51.7224,164.441 49.5,164.5C 47.5,164.5 45.5,164.5 43.5,164.5C 43.5,162.167 43.5,159.833 43.5,157.5C 45.5,157.5 47.5,157.5 49.5,157.5 Z"/></g>
<g><path style="opacity:1" fill="#282828" d="M 67.5,156.5 C 74.319,156.483 77.4856,159.817 77,166.5C 74.9276,171.143 71.4276,172.643 66.5,171C 62.7885,168.487 61.6218,164.987 63,160.5C 64.3968,158.93 65.8968,157.596 67.5,156.5 Z"/></g>
<g><path style="opacity:1" fill="#232323" d="M 116.5,157.5 C 117.947,158.134 118.613,159.301 118.5,161C 118.613,162.699 117.947,163.866 116.5,164.5C 114.167,164.5 111.833,164.5 109.5,164.5C 109.5,162.167 109.5,159.833 109.5,157.5C 111.833,157.5 114.167,157.5 116.5,157.5 Z"/></g>
<g><path style="opacity:1" fill="#717171" d="M 116.5,157.5 C 114.167,157.5 111.833,157.5 109.5,157.5C 109.5,159.833 109.5,162.167 109.5,164.5C 111.833,164.5 114.167,164.5 116.5,164.5C 114.052,165.473 111.385,165.806 108.5,165.5C 108.5,162.5 108.5,159.5 108.5,156.5C 111.385,156.194 114.052,156.527 116.5,157.5 Z"/></g>
<g><path style="opacity:1" fill="#a4a4a4" d="M 140.5,165.5 C 137.375,166.479 134.042,166.813 130.5,166.5C 130.5,168.167 130.5,169.833 130.5,171.5C 134.833,171.5 139.167,171.5 143.5,171.5C 143.5,171.833 143.5,172.167 143.5,172.5C 143.167,172.5 142.833,172.5 142.5,172.5C 138.167,172.5 133.833,172.5 129.5,172.5C 129.5,170.167 129.5,167.833 129.5,165.5C 133.167,165.5 136.833,165.5 140.5,165.5 Z"/></g>
<g><path style="opacity:1" fill="#8a8a8a" d="M 30.5,168.5 C 28.3926,169.468 26.0593,169.802 23.5,169.5C 23.7947,171.735 23.4614,173.735 22.5,175.5C 22.5,173.167 22.5,170.833 22.5,168.5C 25.1667,168.5 27.8333,168.5 30.5,168.5 Z"/></g>
<g><path style="opacity:1" fill="#686868" d="M 114.5,169.5 C 112.833,169.5 111.167,169.5 109.5,169.5C 109.795,171.735 109.461,173.735 108.5,175.5C 108.5,173.167 108.5,170.833 108.5,168.5C 110.735,168.205 112.735,168.539 114.5,169.5 Z"/></g>
</svg>
