<?xml version="1.0" encoding="UTF-8"?>
<!DOCTYPE svg PUBLIC "-//W3C//DTD SVG 1.1//EN" "http://www.w3.org/Graphics/SVG/1.1/DTD/svg11.dtd">
<svg xmlns="http://www.w3.org/2000/svg" version="1.1" width="200px" height="200px" style="shape-rendering:geometricPrecision; text-rendering:geometricPrecision; image-rendering:optimizeQuality; fill-rule:evenodd; clip-rule:evenodd" xmlns:xlink="http://www.w3.org/1999/xlink">
<g><path style="opacity:0.998" fill="#222222" d="M 8.5,-0.5 C 69.1667,-0.5 129.833,-0.5 190.5,-0.5C 191.987,0.803551 193.654,1.97022 195.5,3C 196.697,5.01533 198.03,6.84866 199.5,8.5C 199.5,69.1667 199.5,129.833 199.5,190.5C 198.196,191.987 197.03,193.654 196,195.5C 193.985,196.697 192.151,198.03 190.5,199.5C 129.833,199.5 69.1667,199.5 8.5,199.5C 7.01307,198.196 5.3464,197.03 3.5,196C 2.30342,193.985 0.970083,192.151 -0.5,190.5C -0.5,129.833 -0.5,69.1667 -0.5,8.5C 0.803551,7.01307 1.97022,5.3464 3,3.5C 5.01533,2.30342 6.84866,0.970083 8.5,-0.5 Z"/></g>
<g><path style="opacity:1" fill="#000088" d="M 16.5,9.5 C 71.8343,9.33334 127.168,9.50001 182.5,10C 186.334,11.1433 188.501,13.6433 189,17.5C 189.5,58.1653 189.667,98.832 189.5,139.5C 129.5,139.5 69.5,139.5 9.5,139.5C 9.33334,98.4986 9.50001,57.4986 10,16.5C 11.0183,12.9853 13.1849,10.652 16.5,9.5 Z"/></g>
<g><path style="opacity:1" fill="#543a28" d="M 114.5,15.5 C 122.5,15.5 130.5,15.5 138.5,15.5C 138.5,18.8333 138.5,22.1667 138.5,25.5C 137.236,23.7299 135.736,22.0632 134,20.5C 133.764,22.1193 132.931,23.1193 131.5,23.5C 129.594,22.5176 127.594,21.5176 125.5,20.5C 124.273,19.4096 123.44,18.0762 123,16.5C 120.997,18.9221 118.497,19.7554 115.5,19C 114.748,18.3292 114.414,17.4959 114.5,16.5C 114.5,16.1667 114.5,15.8333 114.5,15.5 Z"/></g>
<g><path style="opacity:1" fill="#a2643c" d="M 114.5,16.5 C 114.414,17.4959 114.748,18.3292 115.5,19C 118.497,19.7554 120.997,18.9221 123,16.5C 123.44,18.0762 124.273,19.4096 125.5,20.5C 127.594,21.5176 129.594,22.5176 131.5,23.5C 128.474,24.8821 125.474,26.2154 122.5,27.5C 122.5,26.5 122.5,25.5 122.5,24.5C 119.423,26.1504 116.256,26.817 113,26.5C 112.508,25.451 112.674,24.451 113.5,23.5C 110.974,21.0807 109.14,21.7473 108,25.5C 105.791,25.0108 103.958,24.0108 102.5,22.5C 104.149,21.3515 105.649,20.0182 107,18.5C 109.252,19.9619 110.752,19.2952 111.5,16.5C 112.527,17.7914 113.527,17.7914 114.5,16.5 Z"/></g>
<g><path style="opacity:1" fill="#34201a" d="M 138.5,25.5 C 138.5,27.1667 138.5,28.8333 138.5,30.5C 137.883,30.6107 137.383,30.944 137,31.5C 136.671,27.9603 134.838,26.7936 131.5,28C 129.45,29.6356 128.45,31.8023 128.5,34.5C 126.755,36.0326 125.755,38.0326 125.5,40.5C 124.869,45.2498 123.869,49.9165 122.5,54.5C 121.167,54.5 119.833,54.5 118.5,54.5C 118.723,52.6583 119.057,50.825 119.5,49C 119.156,47.6349 118.489,46.4682 117.5,45.5C 120.028,44.1841 120.028,43.0174 117.5,42C 119.91,41.9428 121.244,40.7761 121.5,38.5C 121.957,36.2532 122.957,34.2532 124.5,32.5C 119.368,30.6889 114.034,29.6889 108.5,29.5C 106.631,29.5068 104.964,29.8401 103.5,30.5C 101.712,30.7852 100.045,30.4519 98.5,29.5C 99.8069,28.135 99.8069,26.8016 98.5,25.5C 99.5,25.5 100.5,25.5 101.5,25.5C 101.263,24.209 101.596,23.209 102.5,22.5C 103.958,24.0108 105.791,25.0108 108,25.5C 109.14,21.7473 110.974,21.0807 113.5,23.5C 112.674,24.451 112.508,25.451 113,26.5C 116.256,26.817 119.423,26.1504 122.5,24.5C 122.5,25.5 122.5,26.5 122.5,27.5C 125.474,26.2154 128.474,24.8821 131.5,23.5C 132.931,23.1193 133.764,22.1193 134,20.5C 135.736,22.0632 137.236,23.7299 138.5,25.5 Z"/></g>
<g><path style="opacity:1" fill="#e06a17" d="M 121.5,38.5 C 120.167,38.5 118.833,38.5 117.5,38.5C 114.604,37.2248 111.604,37.2248 108.5,38.5C 107.081,37.5489 105.415,37.2155 103.5,37.5C 104.067,35.0314 104.067,32.698 103.5,30.5C 104.964,29.8401 106.631,29.5068 108.5,29.5C 114.034,29.6889 119.368,30.6889 124.5,32.5C 122.957,34.2532 121.957,36.2532 121.5,38.5 Z"/></g>
<g><path style="opacity:1" fill="#b8aea6" d="M 138.5,30.5 C 138.5,35.5 138.5,40.5 138.5,45.5C 137.391,45.4431 136.391,45.1098 135.5,44.5C 131.728,42.2002 129.394,38.8669 128.5,34.5C 128.45,31.8023 129.45,29.6356 131.5,28C 134.838,26.7936 136.671,27.9603 137,31.5C 137.383,30.944 137.883,30.6107 138.5,30.5 Z"/></g>
<g><path style="opacity:1" fill="#e78f14" d="M 128.5,34.5 C 129.394,38.8669 131.728,42.2002 135.5,44.5C 135.068,45.7095 134.401,46.7095 133.5,47.5C 130.629,45.456 127.962,43.1227 125.5,40.5C 125.755,38.0326 126.755,36.0326 128.5,34.5 Z"/></g>
<g><path style="opacity:1" fill="#837162" d="M 117.5,38.5 C 118.833,38.5 120.167,38.5 121.5,38.5C 121.244,40.7761 119.91,41.9428 117.5,42C 120.028,43.0174 120.028,44.1841 117.5,45.5C 118.489,46.4682 119.156,47.6349 119.5,49C 119.057,50.825 118.723,52.6583 118.5,54.5C 114.903,54.1317 111.569,53.1317 108.5,51.5C 107.634,49.856 107.134,48.1893 107,46.5C 108.913,48.1869 111.08,48.6869 113.5,48C 112.099,47.5899 110.766,47.0899 109.5,46.5C 113.479,45.2582 116.146,42.5915 117.5,38.5 Z"/></g>
<g><path style="opacity:1" fill="#553c2c" d="M 117.5,38.5 C 116.146,42.5915 113.479,45.2582 109.5,46.5C 108.305,46.1344 107.639,45.301 107.5,44C 108.233,42.2341 108.567,40.4008 108.5,38.5C 111.604,37.2248 114.604,37.2248 117.5,38.5 Z"/></g>
<g><path style="opacity:1" fill="#994c25" d="M 103.5,37.5 C 105.415,37.2155 107.081,37.5489 108.5,38.5C 108.567,40.4008 108.233,42.2341 107.5,44C 107.639,45.301 108.305,46.1344 109.5,46.5C 110.766,47.0899 112.099,47.5899 113.5,48C 111.08,48.6869 108.913,48.1869 107,46.5C 107.134,48.1893 107.634,49.856 108.5,51.5C 106.862,50.0864 105.528,50.4197 104.5,52.5C 102.214,51.8671 100.548,50.5338 99.5,48.5C 105.707,46.8966 107.04,43.2299 103.5,37.5 Z"/></g>
<g><path style="opacity:1" fill="#16120e" d="M 114.5,15.5 C 114.5,15.8333 114.5,16.1667 114.5,16.5C 113.527,17.7914 112.527,17.7914 111.5,16.5C 110.752,19.2952 109.252,19.9619 107,18.5C 105.649,20.0182 104.149,21.3515 102.5,22.5C 101.596,23.209 101.263,24.209 101.5,25.5C 100.5,25.5 99.5,25.5 98.5,25.5C 95.8549,26.8118 93.8549,28.8118 92.5,31.5C 93.0253,32.1924 93.6919,32.6924 94.5,33C 89.5655,34.6912 87.5655,38.1912 88.5,43.5C 87.5448,45.7457 86.8782,48.079 86.5,50.5C 83.7743,50.2639 81.441,51.0972 79.5,53C 73.3241,58.344 67.3241,63.844 61.5,69.5C 66.9886,66.2555 72.3219,62.0889 77.5,57C 80.4543,55.2814 83.4543,55.1147 86.5,56.5C 86.5,56.8333 86.5,57.1667 86.5,57.5C 83.3508,57.2114 80.3508,57.7114 77.5,59C 72.3333,63.5 67.1667,68 62,72.5C 61.3333,73.5 61.3333,74.5 62,75.5C 67.2582,71.4533 72.4248,67.2866 77.5,63C 79.8098,62.5034 82.1432,62.3367 84.5,62.5C 84.5,63.1667 84.5,63.8333 84.5,64.5C 82.4727,64.3379 80.4727,64.5045 78.5,65C 73.0659,68.4676 67.8992,72.301 63,76.5C 62.4947,79.865 61.328,82.865 59.5,85.5C 59.5,62.1667 59.5,38.8333 59.5,15.5C 77.8333,15.5 96.1667,15.5 114.5,15.5 Z"/></g>
<g><path style="opacity:1" fill="#7b5535" d="M 88.5,43.5 C 89.1667,43.8333 89.8333,44.1667 90.5,44.5C 87.7801,47.9929 86.4468,51.9929 86.5,56.5C 83.4543,55.1147 80.4543,55.2814 77.5,57C 72.3219,62.0889 66.9886,66.2555 61.5,69.5C 67.3241,63.844 73.3241,58.344 79.5,53C 81.441,51.0972 83.7743,50.2639 86.5,50.5C 86.8782,48.079 87.5448,45.7457 88.5,43.5 Z"/></g>
<g><path style="opacity:1" fill="#7f3313" d="M 135.5,49.5 C 136.775,54.0438 135.442,57.7105 131.5,60.5C 128.278,59.3955 125.611,57.5622 123.5,55C 123.667,54.5 123.833,54 124,53.5C 124.519,54.5156 125.353,55.1822 126.5,55.5C 128.036,54.7515 129.369,53.7515 130.5,52.5C 131.251,53.376 131.751,54.376 132,55.5C 132.495,53.5273 132.662,51.5273 132.5,49.5C 133.5,49.5 134.5,49.5 135.5,49.5 Z"/></g>
<g><path style="opacity:1" fill="#6f4d35" d="M 99.5,48.5 C 100.548,50.5338 102.214,51.8671 104.5,52.5C 105.528,50.4197 106.862,50.0864 108.5,51.5C 111.569,53.1317 114.903,54.1317 118.5,54.5C 119.833,54.5 121.167,54.5 122.5,54.5C 121.699,56.0418 121.366,57.7085 121.5,59.5C 112.495,58.8995 103.495,58.2328 94.5,57.5C 96.4502,54.5942 98.1169,51.5942 99.5,48.5 Z"/></g>
<g><path style="opacity:1" fill="#cc510a" d="M 135.5,44.5 C 136.391,45.1098 137.391,45.4431 138.5,45.5C 138.5,50.1667 138.5,54.8333 138.5,59.5C 137.837,61.0419 137.17,62.7086 136.5,64.5C 134.581,63.3875 132.914,62.0542 131.5,60.5C 135.442,57.7105 136.775,54.0438 135.5,49.5C 134.833,48.8333 134.167,48.1667 133.5,47.5C 134.401,46.7095 135.068,45.7095 135.5,44.5 Z"/></g>
<g><path style="opacity:1" fill="#8f6d55" d="M 125.5,40.5 C 127.962,43.1227 130.629,45.456 133.5,47.5C 134.167,48.1667 134.833,48.8333 135.5,49.5C 134.5,49.5 133.5,49.5 132.5,49.5C 132.662,51.5273 132.495,53.5273 132,55.5C 131.751,54.376 131.251,53.376 130.5,52.5C 129.369,53.7515 128.036,54.7515 126.5,55.5C 125.353,55.1822 124.519,54.5156 124,53.5C 123.833,54 123.667,54.5 123.5,55C 125.611,57.5622 128.278,59.3955 131.5,60.5C 132.914,62.0542 134.581,63.3875 136.5,64.5C 137.17,62.7086 137.837,61.0419 138.5,59.5C 138.5,63.1667 138.5,66.8333 138.5,70.5C 136.811,69.0693 134.811,68.2359 132.5,68C 128.403,65.6304 124.736,62.7971 121.5,59.5C 121.366,57.7085 121.699,56.0418 122.5,54.5C 123.869,49.9165 124.869,45.2498 125.5,40.5 Z"/></g>
<g><path style="opacity:1" fill="#684d39" d="M 94.5,59.5 C 103.022,59.6551 111.356,60.3217 119.5,61.5C 119.785,63.288 119.452,64.9547 118.5,66.5C 116.739,67.0351 115.406,68.0351 114.5,69.5C 113.504,69.4142 112.671,69.7476 112,70.5C 111.788,73.7577 111.288,76.9243 110.5,80C 112.26,80.9653 112.594,82.132 111.5,83.5C 107.01,78.541 102.51,73.541 98,68.5C 96.5,65.8333 95,63.1667 93.5,60.5C 93.6236,59.8933 93.9569,59.56 94.5,59.5 Z"/></g>
<g><path style="opacity:1" fill="#2f2015" d="M 94.5,57.5 C 103.495,58.2328 112.495,58.8995 121.5,59.5C 124.736,62.7971 128.403,65.6304 132.5,68C 134.811,68.2359 136.811,69.0693 138.5,70.5C 138.5,71.5 138.5,72.5 138.5,73.5C 135.833,71.8333 133.167,70.1667 130.5,68.5C 127.106,65.7795 123.439,63.4462 119.5,61.5C 111.356,60.3217 103.022,59.6551 94.5,59.5C 94.5,58.8333 94.5,58.1667 94.5,57.5 Z"/></g>
<g><path style="opacity:1" fill="#d4d2cc" d="M 98.5,85.5 C 95.6703,81.195 93.5037,76.5283 92,71.5C 91.3292,70.7476 90.4959,70.4142 89.5,70.5C 89.2172,69.7109 88.7172,69.0442 88,68.5C 87.2607,70.2205 86.4274,71.8872 85.5,73.5C 84.5745,72.3595 83.7412,72.3595 83,73.5C 82.0656,77.6366 80.7322,81.6366 79,85.5C 78.5172,84.552 78.3505,83.552 78.5,82.5C 79.3606,76.1139 81.3606,70.1139 84.5,64.5C 84.5,63.8333 84.5,63.1667 84.5,62.5C 85.5375,61.0697 86.2041,59.403 86.5,57.5C 86.5,57.1667 86.5,56.8333 86.5,56.5C 86.4468,51.9929 87.7801,47.9929 90.5,44.5C 90.8459,42.2951 91.5126,42.1284 92.5,44C 90.7081,47.7532 89.0414,51.5866 87.5,55.5C 89.8913,59.9006 93.058,64.5673 97,69.5C 97.8176,74.1212 99.3176,78.4545 101.5,82.5C 101.484,84.516 100.484,85.516 98.5,85.5 Z"/></g>
<g><path style="opacity:1" fill="#715335" d="M 86.5,57.5 C 86.2041,59.403 85.5375,61.0697 84.5,62.5C 82.1432,62.3367 79.8098,62.5034 77.5,63C 72.4248,67.2866 67.2582,71.4533 62,75.5C 61.3333,74.5 61.3333,73.5 62,72.5C 67.1667,68 72.3333,63.5 77.5,59C 80.3508,57.7114 83.3508,57.2114 86.5,57.5 Z"/></g>
<g><path style="opacity:1" fill="#978683" d="M 119.5,61.5 C 123.439,63.4462 127.106,65.7795 130.5,68.5C 129.698,69.9516 129.198,71.6183 129,73.5C 128.667,73.1667 128.333,72.8333 128,72.5C 127.626,73.4162 127.126,74.2496 126.5,75C 127.45,77.4321 127.45,79.9321 126.5,82.5C 125.5,82.5 124.5,82.5 123.5,82.5C 123.5,83.8333 123.5,85.1667 123.5,86.5C 119.893,88.0378 116.893,87.2045 114.5,84C 113.537,79.297 113.537,74.4637 114.5,69.5C 115.406,68.0351 116.739,67.0351 118.5,66.5C 119.452,64.9547 119.785,63.288 119.5,61.5 Z"/></g>
<g><path style="opacity:1" fill="#826646" d="M 84.5,64.5 C 81.3606,70.1139 79.3606,76.1139 78.5,82.5C 77.2801,84.0496 77.2801,85.7163 78.5,87.5C 78.5,87.8333 78.5,88.1667 78.5,88.5C 77.4761,92.5925 76.1427,96.5925 74.5,100.5C 69.3853,98.3537 64.3853,96.0203 59.5,93.5C 59.5,90.8333 59.5,88.1667 59.5,85.5C 61.328,82.865 62.4947,79.865 63,76.5C 67.8992,72.301 73.0659,68.4676 78.5,65C 80.4727,64.5045 82.4727,64.3379 84.5,64.5 Z"/></g>
<g><path style="opacity:1" fill="#8c8285" d="M 138.5,79.5 C 138.5,82.5 138.5,85.5 138.5,88.5C 134.5,88.8333 130.5,89.1667 126.5,89.5C 127.468,82.8887 129.301,76.8887 132,71.5C 134.031,74.3553 136.197,77.022 138.5,79.5 Z"/></g>
<g><path style="opacity:1" fill="#9b8d89" d="M 89.5,70.5 C 88.8215,74.8571 88.3215,79.1904 88,83.5C 92.6718,85.8867 97.5051,88.0533 102.5,90C 104.618,91.0491 106.284,92.5491 107.5,94.5C 103.467,102.565 99.4673,110.565 95.5,118.5C 94.8333,117.5 94.1667,116.5 93.5,115.5C 94.5676,114.566 95.901,114.232 97.5,114.5C 98.2847,108.458 99.2847,102.458 100.5,96.5C 97.63,93.2452 94.4633,90.2452 91,87.5C 90.5172,88.448 90.3505,89.448 90.5,90.5C 86.413,90.7065 82.913,89.3731 80,86.5C 79.6174,87.056 79.1174,87.3893 78.5,87.5C 77.2801,85.7163 77.2801,84.0496 78.5,82.5C 78.3505,83.552 78.5172,84.552 79,85.5C 80.7322,81.6366 82.0656,77.6366 83,73.5C 83.7412,72.3595 84.5745,72.3595 85.5,73.5C 86.4274,71.8872 87.2607,70.2205 88,68.5C 88.7172,69.0442 89.2172,69.7109 89.5,70.5 Z"/></g>
<g><path style="opacity:1" fill="#aba4a5" d="M 98.5,25.5 C 99.8069,26.8016 99.8069,28.135 98.5,29.5C 100.045,30.4519 101.712,30.7852 103.5,30.5C 104.067,32.698 104.067,35.0314 103.5,37.5C 107.04,43.2299 105.707,46.8966 99.5,48.5C 98.1169,51.5942 96.4502,54.5942 94.5,57.5C 94.5,58.1667 94.5,58.8333 94.5,59.5C 93.9569,59.56 93.6236,59.8933 93.5,60.5C 95,63.1667 96.5,65.8333 98,68.5C 102.51,73.541 107.01,78.541 111.5,83.5C 112.594,82.132 112.26,80.9653 110.5,80C 111.288,76.9243 111.788,73.7577 112,70.5C 112.671,69.7476 113.504,69.4142 114.5,69.5C 113.537,74.4637 113.537,79.297 114.5,84C 116.893,87.2045 119.893,88.0378 123.5,86.5C 123.5,85.1667 123.5,83.8333 123.5,82.5C 124.5,82.5 125.5,82.5 126.5,82.5C 127.45,79.9321 127.45,77.4321 126.5,75C 127.126,74.2496 127.626,73.4162 128,72.5C 128.333,72.8333 128.667,73.1667 129,73.5C 129.198,71.6183 129.698,69.9516 130.5,68.5C 133.167,70.1667 135.833,71.8333 138.5,73.5C 138.5,75.5 138.5,77.5 138.5,79.5C 136.197,77.022 134.031,74.3553 132,71.5C 129.301,76.8887 127.468,82.8887 126.5,89.5C 130.5,89.1667 134.5,88.8333 138.5,88.5C 138.5,100.5 138.5,112.5 138.5,124.5C 133.216,123.903 129.216,121.236 126.5,116.5C 127.603,116.002 128.603,115.669 129.5,115.5C 128.352,113.851 127.019,112.351 125.5,111C 127.751,111.207 130.085,111.373 132.5,111.5C 131.691,105.247 130.191,99.247 128,93.5C 127.692,94.3081 127.192,94.9747 126.5,95.5C 122.625,95.1298 119.625,93.2964 117.5,90C 114.618,88.3921 111.618,87.0587 108.5,86C 107.406,84.2197 106.406,82.3864 105.5,80.5C 104.638,81.7658 103.971,83.0992 103.5,84.5C 102.206,85.2899 101.039,86.2899 100,87.5C 99.2828,86.9558 98.7828,86.2891 98.5,85.5C 100.484,85.516 101.484,84.516 101.5,82.5C 99.3176,78.4545 97.8176,74.1212 97,69.5C 93.058,64.5673 89.8913,59.9006 87.5,55.5C 89.0414,51.5866 90.7081,47.7532 92.5,44C 91.5126,42.1284 90.8459,42.2951 90.5,44.5C 89.8333,44.1667 89.1667,43.8333 88.5,43.5C 87.5655,38.1912 89.5655,34.6912 94.5,33C 93.6919,32.6924 93.0253,32.1924 92.5,31.5C 93.8549,28.8118 95.8549,26.8118 98.5,25.5 Z"/></g>
<g><path style="opacity:1" fill="#8e848b" d="M 138.5,124.5 C 138.5,124.833 138.5,125.167 138.5,125.5C 136.697,127.481 135.03,129.648 133.5,132C 135.134,132.494 136.801,132.66 138.5,132.5C 134.627,134.43 130.294,135.097 125.5,134.5C 123.443,128.72 121.11,123.053 118.5,117.5C 119.037,116.259 119.704,115.092 120.5,114C 118.818,112.105 118.318,109.938 119,107.5C 119.977,108.774 120.811,108.774 121.5,107.5C 124.146,107.892 126.646,107.892 129,107.5C 129.667,105.833 129.667,104.167 129,102.5C 127.956,101.377 127.29,100.044 127,98.5C 126.667,98.8333 126.333,99.1667 126,99.5C 118.315,94.5887 110.815,89.5887 103.5,84.5C 103.971,83.0992 104.638,81.7658 105.5,80.5C 106.406,82.3864 107.406,84.2197 108.5,86C 111.618,87.0587 114.618,88.3921 117.5,90C 119.625,93.2964 122.625,95.1298 126.5,95.5C 127.192,94.9747 127.692,94.3081 128,93.5C 130.191,99.247 131.691,105.247 132.5,111.5C 130.085,111.373 127.751,111.207 125.5,111C 127.019,112.351 128.352,113.851 129.5,115.5C 128.603,115.669 127.603,116.002 126.5,116.5C 129.216,121.236 133.216,123.903 138.5,124.5 Z"/></g>
<g><path style="opacity:1" fill="#7a6a65" d="M 89.5,70.5 C 90.4959,70.4142 91.3292,70.7476 92,71.5C 93.5037,76.5283 95.6703,81.195 98.5,85.5C 98.7828,86.2891 99.2828,86.9558 100,87.5C 101.039,86.2899 102.206,85.2899 103.5,84.5C 110.815,89.5887 118.315,94.5887 126,99.5C 126.333,99.1667 126.667,98.8333 127,98.5C 127.29,100.044 127.956,101.377 129,102.5C 129.667,104.167 129.667,105.833 129,107.5C 126.646,107.892 124.146,107.892 121.5,107.5C 120.5,105.167 118.833,103.5 116.5,102.5C 115.5,100.833 114.167,99.5 112.5,98.5C 112.167,97.5 111.5,96.8333 110.5,96.5C 109.71,95.5987 108.71,94.9321 107.5,94.5C 106.284,92.5491 104.618,91.0491 102.5,90C 97.5051,88.0533 92.6718,85.8867 88,83.5C 88.3215,79.1904 88.8215,74.8571 89.5,70.5 Z"/></g>
<g><path style="opacity:1" fill="#92866b" d="M 93.5,115.5 C 91.5,115.167 89.5,114.833 87.5,114.5C 86.8333,113.833 86.1667,113.167 85.5,112.5C 88.5476,112.506 89.0476,111.506 87,109.5C 86.2825,110.451 85.4491,110.617 84.5,110C 85.7383,109.31 85.7383,108.81 84.5,108.5C 85.6719,107.295 87.0052,107.295 88.5,108.5C 89.2978,110.078 89.7978,111.744 90,113.5C 90.4828,112.552 90.6495,111.552 90.5,110.5C 92.1033,110.688 93.4366,110.188 94.5,109C 88.5035,105.173 82.5035,102.173 76.5,100C 77.5082,96.9881 78.5082,93.9881 79.5,91C 79.472,89.9302 79.1386,89.0968 78.5,88.5C 78.5,88.1667 78.5,87.8333 78.5,87.5C 79.1174,87.3893 79.6174,87.056 80,86.5C 82.913,89.3731 86.413,90.7065 90.5,90.5C 90.3505,89.448 90.5172,88.448 91,87.5C 94.4633,90.2452 97.63,93.2452 100.5,96.5C 99.2847,102.458 98.2847,108.458 97.5,114.5C 95.901,114.232 94.5676,114.566 93.5,115.5 Z"/></g>
<g><path style="opacity:1" fill="#4c3719" d="M 83.5,93.5 C 88.7396,96.5583 93.4063,99.725 97.5,103C 92.4307,103.154 87.4307,102.487 82.5,101C 81.2819,98.3501 81.6152,95.8501 83.5,93.5 Z"/></g>
<g><path style="opacity:1" fill="#dbddd9" d="M 107.5,94.5 C 108.71,94.9321 109.71,95.5987 110.5,96.5C 107.076,106.198 104.91,116.198 104,126.5C 102.672,129.312 101.172,131.978 99.5,134.5C 96.1667,134.5 92.8333,134.5 89.5,134.5C 89.4142,133.504 89.7476,132.671 90.5,132C 89.5509,131.383 88.7175,131.549 88,132.5C 87.3826,129.824 88.2159,129.157 90.5,130.5C 93.1991,128.678 93.0325,127.345 90,126.5C 89.7787,123.057 88.7787,122.724 87,125.5C 86.7351,123.837 87.2351,122.337 88.5,121C 87.3777,119.387 87.8777,118.22 90,117.5C 91.3754,119.376 92.542,121.376 93.5,123.5C 94.562,121.978 95.2287,120.312 95.5,118.5C 99.4673,110.565 103.467,102.565 107.5,94.5 Z"/></g>
<g><path style="opacity:1" fill="#dbded8" d="M 112.5,98.5 C 114.167,99.5 115.5,100.833 116.5,102.5C 116.861,109.98 116.028,117.314 114,124.5C 111.96,119.053 110.96,113.386 111,107.5C 109.755,113.39 109.088,119.39 109,125.5C 108.692,126.308 108.192,126.975 107.5,127.5C 106.471,117.303 108.137,107.636 112.5,98.5 Z"/></g>
<g><path style="opacity:1" fill="#d2d1d9" d="M 85.5,115.5 C 85.7359,118.609 85.4025,121.609 84.5,124.5C 83.6862,122.369 83.1862,120.036 83,117.5C 81.907,119.349 80.5737,121.016 79,122.5C 78.8333,122 78.6667,121.5 78.5,121C 79.6667,118.833 80.8333,116.667 82,114.5C 83.0113,115.337 84.1779,115.67 85.5,115.5 Z"/></g>
<g><path style="opacity:1" fill="#212128" d="M 78.5,88.5 C 79.1386,89.0968 79.472,89.9302 79.5,91C 78.5082,93.9881 77.5082,96.9881 76.5,100C 82.5035,102.173 88.5035,105.173 94.5,109C 93.4366,110.188 92.1033,110.688 90.5,110.5C 90.6495,111.552 90.4828,112.552 90,113.5C 89.7978,111.744 89.2978,110.078 88.5,108.5C 87.0052,107.295 85.6719,107.295 84.5,108.5C 83.8485,107.909 83.1818,107.243 82.5,106.5C 81.7425,107.811 80.7425,108.311 79.5,108C 80.8333,107 80.8333,106 79.5,105C 77.7017,103.495 75.8684,103.328 74,104.5C 73.3975,101.094 72.2308,100.761 70.5,103.5C 71.9023,104.842 71.5689,105.676 69.5,106C 74.4841,108.991 79.8175,111.158 85.5,112.5C 86.1667,113.167 86.8333,113.833 87.5,114.5C 86.8333,114.833 86.1667,115.167 85.5,115.5C 84.1779,115.67 83.0113,115.337 82,114.5C 80.8333,116.667 79.6667,118.833 78.5,121C 78.6667,121.5 78.8333,122 79,122.5C 80.5737,121.016 81.907,119.349 83,117.5C 83.1862,120.036 83.6862,122.369 84.5,124.5C 84.9382,124.435 85.2716,124.601 85.5,125C 84.8366,126.518 83.8366,127.685 82.5,128.5C 79.9124,128.126 77.4124,126.792 75,124.5C 74.6667,124.833 74.3333,125.167 74,125.5C 72.0574,123.285 70.3907,123.285 69,125.5C 68.3592,121.629 66.8592,120.962 64.5,123.5C 65.6405,124.425 65.6405,125.259 64.5,126C 65.7441,126.456 66.5774,125.956 67,124.5C 68.2233,127.447 70.2233,128.447 73,127.5C 74.5057,130.474 76.1724,130.807 78,128.5C 79.5471,132.767 81.0471,133.1 82.5,129.5C 82.3433,130.873 82.51,132.207 83,133.5C 83.3333,132.833 83.6667,132.167 84,131.5C 85.041,132.471 85.8743,133.471 86.5,134.5C 77.5,134.5 68.5,134.5 59.5,134.5C 59.5,133.167 59.5,131.833 59.5,130.5C 64.8375,131.13 64.8375,130.464 59.5,128.5C 59.5,127.167 59.5,125.833 59.5,124.5C 60.1499,124.804 60.8165,125.137 61.5,125.5C 64.6032,121.267 63.9365,119.933 59.5,121.5C 59.5,112.167 59.5,102.833 59.5,93.5C 64.3853,96.0203 69.3853,98.3537 74.5,100.5C 76.1427,96.5925 77.4761,92.5925 78.5,88.5 Z"/></g>
<g><path style="opacity:1" fill="#bfbec6" d="M 70.5,116.5 C 72.2002,110.496 75.2002,109.829 79.5,114.5C 77.3597,117.075 76.1931,119.742 76,122.5C 74.7581,121.128 73.2581,120.128 71.5,119.5C 70.6143,118.675 70.281,117.675 70.5,116.5 Z"/></g>
<g><path style="opacity:1" fill="#bebdc6" d="M 70.5,116.5 C 69.1779,116.67 68.0113,116.337 67,115.5C 66.7508,116.624 66.2508,117.624 65.5,118.5C 64.7952,116.328 63.7952,114.328 62.5,112.5C 64.4224,111.04 65.0891,109.373 64.5,107.5C 66.8111,108.214 68.9777,109.214 71,110.5C 71.5074,111.996 71.0074,113.163 69.5,114C 70.2524,114.671 70.5858,115.504 70.5,116.5 Z"/></g>
<g><path style="opacity:1" fill="#455a3a" d="M 84.5,108.5 C 85.7383,108.81 85.7383,109.31 84.5,110C 85.4491,110.617 86.2825,110.451 87,109.5C 89.0476,111.506 88.5476,112.506 85.5,112.5C 79.8175,111.158 74.4841,108.991 69.5,106C 71.5689,105.676 71.9023,104.842 70.5,103.5C 72.2308,100.761 73.3975,101.094 74,104.5C 75.8684,103.328 77.7017,103.495 79.5,105C 80.8333,106 80.8333,107 79.5,108C 80.7425,108.311 81.7425,107.811 82.5,106.5C 83.1818,107.243 83.8485,107.909 84.5,108.5 Z"/></g>
<g><path style="opacity:1" fill="#55822d" d="M 62.5,97.5 C 63.4778,97.811 64.1445,98.4777 64.5,99.5C 63.2375,102.28 64.2375,103.946 67.5,104.5C 65.2878,105.682 62.9545,105.015 60.5,102.5C 61.1744,100.805 61.8411,99.1379 62.5,97.5 Z"/></g>
<g><path style="opacity:1" fill="#5e9730" d="M 65.5,99.5 C 66.5,99.5 67.5,99.5 68.5,99.5C 67.7542,103.31 66.7542,103.31 65.5,99.5 Z"/></g>
<g><path style="opacity:1" fill="#bebcc6" d="M 59.5,124.5 C 59.5,123.5 59.5,122.5 59.5,121.5C 63.9365,119.933 64.6032,121.267 61.5,125.5C 60.8165,125.137 60.1499,124.804 59.5,124.5 Z"/></g>
<g><path style="opacity:1" fill="#aba7a7" d="M 110.5,96.5 C 111.5,96.8333 112.167,97.5 112.5,98.5C 108.137,107.636 106.471,117.303 107.5,127.5C 108.192,126.975 108.692,126.308 109,125.5C 109.088,119.39 109.755,113.39 111,107.5C 110.96,113.386 111.96,119.053 114,124.5C 116.028,117.314 116.861,109.98 116.5,102.5C 118.833,103.5 120.5,105.167 121.5,107.5C 120.811,108.774 119.977,108.774 119,107.5C 118.318,109.938 118.818,112.105 120.5,114C 119.704,115.092 119.037,116.259 118.5,117.5C 121.11,123.053 123.443,128.72 125.5,134.5C 116.833,134.5 108.167,134.5 99.5,134.5C 101.172,131.978 102.672,129.312 104,126.5C 104.91,116.198 107.076,106.198 110.5,96.5 Z"/></g>
<g><path style="opacity:1" fill="#95959e" d="M 82.5,128.5 C 82.5,128.833 82.5,129.167 82.5,129.5C 81.0471,133.1 79.5471,132.767 78,128.5C 76.1724,130.807 74.5057,130.474 73,127.5C 70.2233,128.447 68.2233,127.447 67,124.5C 66.5774,125.956 65.7441,126.456 64.5,126C 65.6405,125.259 65.6405,124.425 64.5,123.5C 66.8592,120.962 68.3592,121.629 69,125.5C 70.3907,123.285 72.0574,123.285 74,125.5C 74.3333,125.167 74.6667,124.833 75,124.5C 77.4124,126.792 79.9124,128.126 82.5,128.5 Z"/></g>
<g><path style="opacity:1" fill="#4e4c55" d="M 87.5,114.5 C 89.5,114.833 91.5,115.167 93.5,115.5C 94.1667,116.5 94.8333,117.5 95.5,118.5C 95.2287,120.312 94.562,121.978 93.5,123.5C 92.542,121.376 91.3754,119.376 90,117.5C 87.8777,118.22 87.3777,119.387 88.5,121C 87.2351,122.337 86.7351,123.837 87,125.5C 88.7787,122.724 89.7787,123.057 90,126.5C 93.0325,127.345 93.1991,128.678 90.5,130.5C 88.2159,129.157 87.3826,129.824 88,132.5C 88.7175,131.549 89.5509,131.383 90.5,132C 89.7476,132.671 89.4142,133.504 89.5,134.5C 88.5,134.5 87.5,134.5 86.5,134.5C 85.8743,133.471 85.041,132.471 84,131.5C 83.6667,132.167 83.3333,132.833 83,133.5C 82.51,132.207 82.3433,130.873 82.5,129.5C 82.5,129.167 82.5,128.833 82.5,128.5C 83.8366,127.685 84.8366,126.518 85.5,125C 85.2716,124.601 84.9382,124.435 84.5,124.5C 85.4025,121.609 85.7359,118.609 85.5,115.5C 86.1667,115.167 86.8333,114.833 87.5,114.5 Z"/></g>
<g><path style="opacity:1" fill="#1d2669" d="M 138.5,125.5 C 138.5,127.833 138.5,130.167 138.5,132.5C 136.801,132.66 135.134,132.494 133.5,132C 135.03,129.648 136.697,127.481 138.5,125.5 Z"/></g>
<g><path style="opacity:1" fill="#46761e" d="M 59.5,128.5 C 64.8375,130.464 64.8375,131.13 59.5,130.5C 59.5,129.833 59.5,129.167 59.5,128.5 Z"/></g>
<g><path style="opacity:1" fill="#e6e6e6" d="M 14.5,150.5 C 22.1739,150.334 29.8406,150.5 37.5,151C 44.2718,154.383 46.1051,159.549 43,166.5C 41.0395,169.135 38.5395,170.969 35.5,172C 39.9806,176.635 43.9806,181.635 47.5,187C 45.1667,187.667 42.8333,187.667 40.5,187C 37.5,182.667 34.5,178.333 31.5,174C 27.7924,171.868 23.7924,171.035 19.5,171.5C 19.5,176.833 19.5,182.167 19.5,187.5C 17.8333,187.5 16.1667,187.5 14.5,187.5C 14.5,175.167 14.5,162.833 14.5,150.5 Z"/></g>
<g><path style="opacity:1" fill="#e4e4e4" d="M 52.5,150.5 C 61.5,150.5 70.5,150.5 79.5,150.5C 79.5,151.833 79.5,153.167 79.5,154.5C 72.5,154.5 65.5,154.5 58.5,154.5C 58.5,158.5 58.5,162.5 58.5,166.5C 65.1667,166.5 71.8333,166.5 78.5,166.5C 78.5,167.833 78.5,169.167 78.5,170.5C 71.8333,170.5 65.1667,170.5 58.5,170.5C 58.5,174.833 58.5,179.167 58.5,183.5C 65.8333,183.5 73.1667,183.5 80.5,183.5C 80.5,184.833 80.5,186.167 80.5,187.5C 71.1667,187.5 61.8333,187.5 52.5,187.5C 52.5,175.167 52.5,162.833 52.5,150.5 Z"/></g>
<g><path style="opacity:1" fill="#e5e5e5" d="M 88.5,150.5 C 95.9472,150.071 103.281,150.571 110.5,152C 115.765,157.407 115.765,162.74 110.5,168C 117.017,172.245 118.183,177.745 114,184.5C 112.581,185.46 111.081,186.293 109.5,187C 102.508,187.5 95.5079,187.666 88.5,187.5C 88.5,175.167 88.5,162.833 88.5,150.5 Z"/></g>
<g><path style="opacity:1" fill="#ececec" d="M 124.5,150.5 C 133.5,150.5 142.5,150.5 151.5,150.5C 151.5,151.833 151.5,153.167 151.5,154.5C 144.167,154.5 136.833,154.5 129.5,154.5C 129.5,158.5 129.5,162.5 129.5,166.5C 136.5,166.5 143.5,166.5 150.5,166.5C 150.5,167.833 150.5,169.167 150.5,170.5C 143.5,170.5 136.5,170.5 129.5,170.5C 129.5,174.833 129.5,179.167 129.5,183.5C 137.167,183.5 144.833,183.5 152.5,183.5C 152.5,184.833 152.5,186.167 152.5,187.5C 143.167,187.5 133.833,187.5 124.5,187.5C 124.5,175.167 124.5,162.833 124.5,150.5 Z"/></g>
<g><path style="opacity:1" fill="#e8e8e8" d="M 159.5,150.5 C 161.167,150.5 162.833,150.5 164.5,150.5C 164.5,161.5 164.5,172.5 164.5,183.5C 170.833,183.5 177.167,183.5 183.5,183.5C 183.5,184.833 183.5,186.167 183.5,187.5C 175.5,187.5 167.5,187.5 159.5,187.5C 159.5,175.167 159.5,162.833 159.5,150.5 Z"/></g>
<g><path style="opacity:1" fill="#222222" d="M 19.5,154.5 C 24.1785,154.334 28.8452,154.501 33.5,155C 38.9422,157.241 39.9422,160.908 36.5,166C 30.9116,167.289 25.2449,167.789 19.5,167.5C 19.5,163.167 19.5,158.833 19.5,154.5 Z"/></g>
<g><path style="opacity:1" fill="#242424" d="M 93.5,154.5 C 97.8461,154.334 102.179,154.501 106.5,155C 110.01,158.048 110.343,161.381 107.5,165C 102.934,166.309 98.2675,166.809 93.5,166.5C 93.5,162.5 93.5,158.5 93.5,154.5 Z"/></g>
<g><path style="opacity:1" fill="#212221" d="M 93.5,170.5 C 98.5805,170.25 103.58,170.75 108.5,172C 111.167,175.333 111.167,178.667 108.5,182C 103.599,183.325 98.5988,183.825 93.5,183.5C 93.5,179.167 93.5,174.833 93.5,170.5 Z"/></g>
</svg>
