<?xml version="1.0" encoding="UTF-8"?>
<!DOCTYPE svg PUBLIC "-//W3C//DTD SVG 1.1//EN" "http://www.w3.org/Graphics/SVG/1.1/DTD/svg11.dtd">
<svg xmlns="http://www.w3.org/2000/svg" version="1.1" width="200px" height="200px" style="shape-rendering:geometricPrecision; text-rendering:geometricPrecision; image-rendering:optimizeQuality; fill-rule:evenodd; clip-rule:evenodd" xmlns:xlink="http://www.w3.org/1999/xlink">
<g><path style="opacity:0.998" fill="#222222" d="M 8.5,-0.5 C 69.1667,-0.5 129.833,-0.5 190.5,-0.5C 191.987,0.803551 193.654,1.97022 195.5,3C 196.697,5.01533 198.03,6.84866 199.5,8.5C 199.5,69.1667 199.5,129.833 199.5,190.5C 198.196,191.987 197.03,193.654 196,195.5C 193.985,196.697 192.151,198.03 190.5,199.5C 129.833,199.5 69.1667,199.5 8.5,199.5C 7.01307,198.196 5.3464,197.03 3.5,196C 2.30342,193.985 0.970083,192.151 -0.5,190.5C -0.5,129.833 -0.5,69.1667 -0.5,8.5C 0.803551,7.01307 1.97022,5.3464 3,3.5C 5.01533,2.30342 6.84866,0.970083 8.5,-0.5 Z"/></g>
<g><path style="opacity:1" fill="#ee1621" d="M 15.5,9.5 C 71.501,9.33334 127.501,9.50001 183.5,10C 186,11.1667 187.833,13 189,15.5C 189.5,56.832 189.667,98.1653 189.5,139.5C 129.5,139.5 69.5,139.5 9.5,139.5C 9.33334,98.1653 9.50001,56.832 10,15.5C 12.0396,13.6298 13.8729,11.6298 15.5,9.5 Z"/></g>
<g><path style="opacity:1" fill="#7cb1e1" d="M 163.5,34.5 C 159.004,35.4329 154.504,36.4329 150,37.5C 148.893,37.4148 147.893,37.0814 147,36.5C 137.901,37.8865 128.734,38.8865 119.5,39.5C 118.833,39.1667 118.167,38.8333 117.5,38.5C 113.633,39.1347 109.8,39.8013 106,40.5C 96.5303,39.8211 87.0303,39.1545 77.5,38.5C 73.3683,39.0494 69.035,39.3827 64.5,39.5C 64.8134,36.7531 64.48,34.0865 63.5,31.5C 62.6143,32.325 62.281,33.325 62.5,34.5C 61.8333,36.1667 61.1667,37.8333 60.5,39.5C 54.5166,39.315 48.1832,39.315 41.5,39.5C 40.8333,40.1667 40.1667,40.8333 39.5,41.5C 37.5266,40.3601 35.6933,39.0267 34,37.5C 33.6174,38.056 33.1174,38.3893 32.5,38.5C 32.5,35.8333 32.5,33.1667 32.5,30.5C 76.1667,30.5 119.833,30.5 163.5,30.5C 163.5,31.8333 163.5,33.1667 163.5,34.5 Z"/></g>
<g><path style="opacity:1" fill="#cf2028" d="M 62.5,34.5 C 63.8544,37.3354 63.3544,40.0021 61,42.5C 60.5172,41.552 60.3505,40.552 60.5,39.5C 61.1667,37.8333 61.8333,36.1667 62.5,34.5 Z"/></g>
<g><path style="opacity:1" fill="#8cb8e2" d="M 163.5,34.5 C 163.5,39.1667 163.5,43.8333 163.5,48.5C 157.246,49.5309 150.58,50.5309 143.5,51.5C 137.869,50.0193 132.203,49.1859 126.5,49C 110.755,48.584 95.0881,48.4174 79.5,48.5C 74.6889,50.2164 69.8556,50.5497 65,49.5C 64.6667,52.1667 64.3333,54.8333 64,57.5C 63.6667,52.1667 63.3333,46.8333 63,41.5C 62.5034,43.8098 62.3367,46.1432 62.5,48.5C 54.6086,48.4771 46.7753,49.1437 39,50.5C 36.7446,50.4343 34.578,50.1009 32.5,49.5C 32.5,45.8333 32.5,42.1667 32.5,38.5C 33.1174,38.3893 33.6174,38.056 34,37.5C 35.6933,39.0267 37.5266,40.3601 39.5,41.5C 40.1667,40.8333 40.8333,40.1667 41.5,39.5C 48.1832,39.315 54.5166,39.315 60.5,39.5C 60.3505,40.552 60.5172,41.552 61,42.5C 63.3544,40.0021 63.8544,37.3354 62.5,34.5C 62.281,33.325 62.6143,32.325 63.5,31.5C 64.48,34.0865 64.8134,36.7531 64.5,39.5C 69.035,39.3827 73.3683,39.0494 77.5,38.5C 87.0303,39.1545 96.5303,39.8211 106,40.5C 109.8,39.8013 113.633,39.1347 117.5,38.5C 118.167,38.8333 118.833,39.1667 119.5,39.5C 128.734,38.8865 137.901,37.8865 147,36.5C 147.893,37.0814 148.893,37.4148 150,37.5C 154.504,36.4329 159.004,35.4329 163.5,34.5 Z"/></g>
<g><path style="opacity:1" fill="#9cbede" d="M 163.5,48.5 C 163.5,51.8333 163.5,55.1667 163.5,58.5C 161.897,57.3228 160.564,57.4894 159.5,59C 152.983,59.3135 146.483,59.8135 140,60.5C 133.992,58.0378 128.159,58.0378 122.5,60.5C 122.819,58.2495 122.319,56.2495 121,54.5C 114.405,55.8131 107.572,56.4797 100.5,56.5C 93.3318,56.4631 86.3318,55.7965 79.5,54.5C 78.8933,54.6236 78.56,54.9569 78.5,55.5C 78.7427,59.9677 76.7427,62.8011 72.5,64C 72.7284,64.3988 73.0618,64.5654 73.5,64.5C 73.9175,65.2216 74.5842,65.7216 75.5,66C 74.944,66.3826 74.6107,66.8826 74.5,67.5C 72.6916,67.4914 71.0249,67.9914 69.5,69C 70.0944,69.4643 70.7611,69.631 71.5,69.5C 72.2341,70.7079 72.5674,72.0413 72.5,73.5C 72.1667,73.5 71.8333,73.5 71.5,73.5C 71.5,73.1667 71.5,72.8333 71.5,72.5C 69.0521,71.5269 66.3854,71.1936 63.5,71.5C 62.5358,69.5953 60.8691,68.5953 58.5,68.5C 56.4229,69.9371 54.0895,70.6038 51.5,70.5C 51.69,72.9589 50.69,74.6255 48.5,75.5C 46.2646,75.2053 44.2646,75.5386 42.5,76.5C 40.0633,72.6193 36.7299,71.6193 32.5,73.5C 32.5,65.5 32.5,57.5 32.5,49.5C 34.578,50.1009 36.7446,50.4343 39,50.5C 46.7753,49.1437 54.6086,48.4771 62.5,48.5C 62.3367,46.1432 62.5034,43.8098 63,41.5C 63.3333,46.8333 63.6667,52.1667 64,57.5C 64.3333,54.8333 64.6667,52.1667 65,49.5C 69.8556,50.5497 74.6889,50.2164 79.5,48.5C 95.0881,48.4174 110.755,48.584 126.5,49C 132.203,49.1859 137.869,50.0193 143.5,51.5C 150.58,50.5309 157.246,49.5309 163.5,48.5 Z"/></g>
<g><path style="opacity:1" fill="#b4754e" d="M 78.5,55.5 C 78.56,54.9569 78.8933,54.6236 79.5,54.5C 86.3318,55.7965 93.3318,56.4631 100.5,56.5C 107.572,56.4797 114.405,55.8131 121,54.5C 122.319,56.2495 122.819,58.2495 122.5,60.5C 123.1,61.8999 124.1,62.8999 125.5,63.5C 124.609,64.1098 123.609,64.4431 122.5,64.5C 121.631,62.283 121.298,59.9496 121.5,57.5C 106.923,58.1232 92.5894,57.4565 78.5,55.5 Z"/></g>
<g><path style="opacity:1" fill="#e2882b" d="M 78.5,55.5 C 92.5894,57.4565 106.923,58.1232 121.5,57.5C 121.298,59.9496 121.631,62.283 122.5,64.5C 114.833,64.5 107.167,64.5 99.5,64.5C 90.8333,64.5 82.1667,64.5 73.5,64.5C 73.0618,64.5654 72.7284,64.3988 72.5,64C 76.7427,62.8011 78.7427,59.9677 78.5,55.5 Z"/></g>
<g><path style="opacity:1" fill="#acc1d9" d="M 163.5,58.5 C 163.5,60.8333 163.5,63.1667 163.5,65.5C 162.5,65.5 161.5,65.5 160.5,65.5C 160.435,68.4282 159.768,71.0948 158.5,73.5C 157.312,72.6364 156.145,71.6364 155,70.5C 153.181,72.5026 151.015,73.836 148.5,74.5C 146.901,74.7678 145.568,74.4345 144.5,73.5C 142.777,72.1999 140.61,71.5332 138,71.5C 135.39,71.5332 133.223,72.1999 131.5,73.5C 130.368,74.3543 129.035,74.3543 127.5,73.5C 127.991,71.5893 127.991,69.5893 127.5,67.5C 126.167,67.5 124.833,67.5 123.5,67.5C 123.5,67.1667 123.5,66.8333 123.5,66.5C 124.906,66.0269 125.573,65.0269 125.5,63.5C 124.1,62.8999 123.1,61.8999 122.5,60.5C 128.159,58.0378 133.992,58.0378 140,60.5C 146.483,59.8135 152.983,59.3135 159.5,59C 160.564,57.4894 161.897,57.3228 163.5,58.5 Z"/></g>
<g><path style="opacity:1" fill="#191111" d="M 125.5,63.5 C 125.573,65.0269 124.906,66.0269 123.5,66.5C 115.5,65.8333 107.5,65.1667 99.5,64.5C 107.167,64.5 114.833,64.5 122.5,64.5C 123.609,64.4431 124.609,64.1098 125.5,63.5 Z"/></g>
<g><path style="opacity:1" fill="#4d3428" d="M 73.5,64.5 C 82.1667,64.5 90.8333,64.5 99.5,64.5C 107.5,65.1667 115.5,65.8333 123.5,66.5C 123.5,66.8333 123.5,67.1667 123.5,67.5C 107.167,67.5 90.8333,67.5 74.5,67.5C 74.6107,66.8826 74.944,66.3826 75.5,66C 74.5842,65.7216 73.9175,65.2216 73.5,64.5 Z"/></g>
<g><path style="opacity:1" fill="#d3823d" d="M 74.5,67.5 C 90.8333,67.5 107.167,67.5 123.5,67.5C 124.833,67.5 126.167,67.5 127.5,67.5C 127.082,68.2216 126.416,68.7216 125.5,69C 107.503,69.4999 89.5031,69.6666 71.5,69.5C 70.7611,69.631 70.0944,69.4643 69.5,69C 71.0249,67.9914 72.6916,67.4914 74.5,67.5 Z"/></g>
<g><path style="opacity:1" fill="#dd7f36" d="M 63.5,71.5 C 66.3854,71.1936 69.0521,71.5269 71.5,72.5C 68.3846,74.1774 65.7179,73.8441 63.5,71.5 Z"/></g>
<g><path style="opacity:1" fill="#e18237" d="M 144.5,73.5 C 140.167,73.5 135.833,73.5 131.5,73.5C 133.223,72.1999 135.39,71.5332 138,71.5C 140.61,71.5332 142.777,72.1999 144.5,73.5 Z"/></g>
<g><path style="opacity:1" fill="#625346" d="M 63.5,71.5 C 65.7179,73.8441 68.3846,74.1774 71.5,72.5C 71.5,72.8333 71.5,73.1667 71.5,73.5C 69.3655,75.0334 66.8655,75.7001 64,75.5C 58.9743,74.9872 53.8077,74.9872 48.5,75.5C 50.69,74.6255 51.69,72.9589 51.5,70.5C 54.0895,70.6038 56.4229,69.9371 58.5,68.5C 60.8691,68.5953 62.5358,69.5953 63.5,71.5 Z"/></g>
<g><path style="opacity:1" fill="#6f6050" d="M 163.5,65.5 C 163.5,72.5 163.5,79.5 163.5,86.5C 162.732,85.7375 162.232,84.7375 162,83.5C 161.517,84.448 161.351,85.448 161.5,86.5C 159.5,86.5 157.5,86.5 155.5,86.5C 155.244,84.2075 155.577,82.0408 156.5,80C 150.495,75.5439 151.162,73.3773 158.5,73.5C 159.768,71.0948 160.435,68.4282 160.5,65.5C 161.5,65.5 162.5,65.5 163.5,65.5 Z"/></g>
<g><path style="opacity:1" fill="#432626" d="M 127.5,67.5 C 127.991,69.5893 127.991,71.5893 127.5,73.5C 113.068,74.1509 98.7352,74.8176 84.5,75.5C 80.4547,75.3575 76.6214,75.3575 73,75.5C 72.5357,74.9056 72.369,74.2389 72.5,73.5C 72.5674,72.0413 72.2341,70.7079 71.5,69.5C 89.5031,69.6666 107.503,69.4999 125.5,69C 126.416,68.7216 127.082,68.2216 127.5,67.5 Z"/></g>
<g><path style="opacity:1" fill="#5a6b3a" d="M 42.5,76.5 C 43.1667,76.5 43.5,76.8333 43.5,77.5C 43.5,77.8333 43.5,78.1667 43.5,78.5C 41.5642,77.741 39.7309,76.741 38,75.5C 36.5,76 35,76.5 33.5,77C 36.028,78.3159 36.028,79.4826 33.5,80.5C 34.6888,81.4287 36.0222,81.762 37.5,81.5C 37.5,81.8333 37.5,82.1667 37.5,82.5C 35.8333,82.5 34.1667,82.5 32.5,82.5C 32.5,79.5 32.5,76.5 32.5,73.5C 36.7299,71.6193 40.0633,72.6193 42.5,76.5 Z"/></g>
<g><path style="opacity:1" fill="#b6a39d" d="M 158.5,73.5 C 151.162,73.3773 150.495,75.5439 156.5,80C 155.577,82.0408 155.244,84.2075 155.5,86.5C 157.5,86.5 159.5,86.5 161.5,86.5C 161.351,85.448 161.517,84.448 162,83.5C 162.232,84.7375 162.732,85.7375 163.5,86.5C 163.5,87.5 163.5,88.5 163.5,89.5C 161.339,89.4906 160.006,88.8239 159.5,87.5C 156.971,87.6499 156.305,88.6499 157.5,90.5C 156.027,91.0715 154.36,91.0715 152.5,90.5C 152.715,88.8212 152.048,87.8212 150.5,87.5C 151.568,86.5655 152.901,86.2322 154.5,86.5C 155.145,83.4532 154.145,81.2865 151.5,80C 151.957,79.586 152.291,79.086 152.5,78.5C 144.833,77.1667 137.167,77.1667 129.5,78.5C 130.954,80.2633 130.62,81.5967 128.5,82.5C 127.548,80.9547 127.215,79.288 127.5,77.5C 122.588,76.9743 117.922,77.6409 113.5,79.5C 109.418,77.6538 105.085,76.9872 100.5,77.5C 100.784,79.4147 100.451,81.0813 99.5,82.5C 98.5,82.5 97.5,82.5 96.5,82.5C 95.5489,81.0813 95.2155,79.4147 95.5,77.5C 88.2873,76.9217 81.2873,77.5883 74.5,79.5C 73.8076,78.9747 73.3076,78.3081 73,77.5C 71.8861,81.4557 71.0527,81.4557 70.5,77.5C 68.549,77.2267 67.049,77.8934 66,79.5C 65.6924,78.6919 65.1924,78.0253 64.5,77.5C 63.52,80.0865 63.1866,82.7531 63.5,85.5C 64.8333,85.5 66.1667,85.5 67.5,85.5C 65.6314,87.2084 63.6314,87.5417 61.5,86.5C 61.5,86.1667 61.5,85.8333 61.5,85.5C 62.4731,83.0521 62.8064,80.3854 62.5,77.5C 59.8333,77.5 57.1667,77.5 54.5,77.5C 53.8333,76.1667 53.1667,76.1667 52.5,77.5C 49.5,77.5 46.5,77.5 43.5,77.5C 43.5,76.8333 43.1667,76.5 42.5,76.5C 44.2646,75.5386 46.2646,75.2053 48.5,75.5C 53.8077,74.9872 58.9743,74.9872 64,75.5C 66.8655,75.7001 69.3655,75.0334 71.5,73.5C 71.8333,73.5 72.1667,73.5 72.5,73.5C 72.369,74.2389 72.5357,74.9056 73,75.5C 76.6214,75.3575 80.4547,75.3575 84.5,75.5C 106.007,75.8306 127.34,75.4973 148.5,74.5C 151.015,73.836 153.181,72.5026 155,70.5C 156.145,71.6364 157.312,72.6364 158.5,73.5 Z"/></g>
<g><path style="opacity:1" fill="#605037" d="M 127.5,73.5 C 129.035,74.3543 130.368,74.3543 131.5,73.5C 135.833,73.5 140.167,73.5 144.5,73.5C 145.568,74.4345 146.901,74.7678 148.5,74.5C 127.34,75.4973 106.007,75.8306 84.5,75.5C 98.7352,74.8176 113.068,74.1509 127.5,73.5 Z"/></g>
<g><path style="opacity:1" fill="#232e1e" d="M 43.5,78.5 C 43.5,79.8333 43.5,81.1667 43.5,82.5C 42.1667,82.5 40.8333,82.5 39.5,82.5C 40.7768,78.9436 39.7768,78.1102 36.5,80C 37.056,80.3826 37.3893,80.8826 37.5,81.5C 36.0222,81.762 34.6888,81.4287 33.5,80.5C 36.028,79.4826 36.028,78.3159 33.5,77C 35,76.5 36.5,76 38,75.5C 39.7309,76.741 41.5642,77.741 43.5,78.5 Z"/></g>
<g><path style="opacity:1" fill="#944853" d="M 43.5,77.5 C 46.5,77.5 49.5,77.5 52.5,77.5C 52.6621,79.5273 52.4955,81.5273 52,83.5C 51.586,83.0426 51.086,82.7093 50.5,82.5C 46.816,84.7023 43.1493,86.0356 39.5,86.5C 39.5,85.1667 39.5,83.8333 39.5,82.5C 40.8333,82.5 42.1667,82.5 43.5,82.5C 43.5,81.1667 43.5,79.8333 43.5,78.5C 43.5,78.1667 43.5,77.8333 43.5,77.5 Z"/></g>
<g><path style="opacity:1" fill="#9b4d54" d="M 54.5,77.5 C 57.1667,77.5 59.8333,77.5 62.5,77.5C 62.8064,80.3854 62.4731,83.0521 61.5,85.5C 58.6035,85.8747 55.9368,85.3747 53.5,84C 54.1667,83.6667 54.8333,83.3333 55.5,83C 54.5939,81.3005 54.2606,79.4672 54.5,77.5 Z"/></g>
<g><path style="opacity:1" fill="#9a5358" d="M 96.5,82.5 C 94.8333,83.8333 93.1667,85.1667 91.5,86.5C 87.6172,84.575 84.7839,85.575 83,89.5C 82.5,88.3333 81.6667,87.5 80.5,87C 84.2259,85.9568 83.8926,85.4568 79.5,85.5C 79.5,86.8333 79.5,88.1667 79.5,89.5C 76.9552,89.8495 74.9552,89.0162 73.5,87C 74.5,86.6667 75.5,86.3333 76.5,86C 74.2884,85.2109 72.2884,85.3775 70.5,86.5C 69.609,85.8902 68.609,85.5569 67.5,85.5C 66.1667,85.5 64.8333,85.5 63.5,85.5C 63.1866,82.7531 63.52,80.0865 64.5,77.5C 65.1924,78.0253 65.6924,78.6919 66,79.5C 67.049,77.8934 68.549,77.2267 70.5,77.5C 71.0527,81.4557 71.8861,81.4557 73,77.5C 73.3076,78.3081 73.8076,78.9747 74.5,79.5C 81.2873,77.5883 88.2873,76.9217 95.5,77.5C 95.2155,79.4147 95.5489,81.0813 96.5,82.5 Z"/></g>
<g><path style="opacity:1" fill="#a4565b" d="M 150.5,87.5 C 150.167,87.5 149.833,87.5 149.5,87.5C 148.791,86.596 147.791,86.2627 146.5,86.5C 146.244,84.2075 146.577,82.0408 147.5,80C 146.167,78 144.833,78 143.5,80C 144.423,82.0408 144.756,84.2075 144.5,86.5C 143.5,86.5 142.5,86.5 141.5,86.5C 140.5,86.5 139.5,86.5 138.5,86.5C 130.927,84.0659 123.26,83.8992 115.5,86C 114.944,86.3826 114.611,86.8826 114.5,87.5C 111.624,87.2077 108.957,87.2077 106.5,87.5C 104.354,85.658 102.021,83.9913 99.5,82.5C 100.451,81.0813 100.784,79.4147 100.5,77.5C 105.085,76.9872 109.418,77.6538 113.5,79.5C 117.922,77.6409 122.588,76.9743 127.5,77.5C 127.215,79.288 127.548,80.9547 128.5,82.5C 130.62,81.5967 130.954,80.2633 129.5,78.5C 137.167,77.1667 144.833,77.1667 152.5,78.5C 152.291,79.086 151.957,79.586 151.5,80C 154.145,81.2865 155.145,83.4532 154.5,86.5C 152.901,86.2322 151.568,86.5655 150.5,87.5 Z"/></g>
<g><path style="opacity:1" fill="#7d3c45" d="M 32.5,82.5 C 34.1667,82.5 35.8333,82.5 37.5,82.5C 37.5,83.8333 37.5,85.1667 37.5,86.5C 36.5,86.5 35.5,86.5 34.5,86.5C 34.1583,85.6618 33.4916,85.3284 32.5,85.5C 32.5,84.5 32.5,83.5 32.5,82.5 Z"/></g>
<g><path style="opacity:1" fill="#a18f8b" d="M 39.5,82.5 C 39.5,83.8333 39.5,85.1667 39.5,86.5C 37.9013,88.6038 36.068,90.6038 34,92.5C 34.2797,90.2709 34.4464,88.2709 34.5,86.5C 35.5,86.5 36.5,86.5 37.5,86.5C 37.5,85.1667 37.5,83.8333 37.5,82.5C 37.5,82.1667 37.5,81.8333 37.5,81.5C 37.3893,80.8826 37.056,80.3826 36.5,80C 39.7768,78.1102 40.7768,78.9436 39.5,82.5 Z"/></g>
<g><path style="opacity:1" fill="#7f6968" d="M 54.5,77.5 C 54.2606,79.4672 54.5939,81.3005 55.5,83C 54.8333,83.3333 54.1667,83.6667 53.5,84C 55.9368,85.3747 58.6035,85.8747 61.5,85.5C 61.5,85.8333 61.5,86.1667 61.5,86.5C 61.5,87.5 61.5,88.5 61.5,89.5C 59.0582,89.8808 58.3915,89.2141 59.5,87.5C 58.8333,87.1667 58.1667,86.8333 57.5,86.5C 55.8333,87.5 54.1667,88.5 52.5,89.5C 51.8333,88.8333 51.1667,88.1667 50.5,87.5C 48.5804,91.193 47.2471,91.193 46.5,87.5C 44.5082,87.3285 42.8415,87.9951 41.5,89.5C 40.5748,88.6431 39.9081,87.6431 39.5,86.5C 43.1493,86.0356 46.816,84.7023 50.5,82.5C 51.086,82.7093 51.586,83.0426 52,83.5C 52.4955,81.5273 52.6621,79.5273 52.5,77.5C 53.1667,76.1667 53.8333,76.1667 54.5,77.5 Z"/></g>
<g><path style="opacity:1" fill="#575057" d="M 96.5,82.5 C 97.5,82.5 98.5,82.5 99.5,82.5C 102.021,83.9913 104.354,85.658 106.5,87.5C 103.428,87.8125 100.595,87.1458 98,85.5C 96.2382,85.9444 96.4049,86.4444 98.5,87C 97.2068,87.49 95.8734,87.6567 94.5,87.5C 93.791,86.596 92.791,86.2627 91.5,86.5C 93.1667,85.1667 94.8333,83.8333 96.5,82.5 Z"/></g>
<g><path style="opacity:1" fill="#514c52" d="M 138.5,86.5 C 137.811,87.7072 137.645,89.0406 138,90.5C 136.667,89.8333 135.667,88.8333 135,87.5C 133.451,90.0026 131.784,90.0026 130,87.5C 129.085,88.3279 128.419,89.3279 128,90.5C 127.25,89.8742 126.416,89.3742 125.5,89C 126.84,86.8215 126.507,86.3215 124.5,87.5C 121.167,87.5 117.833,87.5 114.5,87.5C 114.611,86.8826 114.944,86.3826 115.5,86C 123.26,83.8992 130.927,84.0659 138.5,86.5 Z"/></g>
<g><path style="opacity:1" fill="#8f8586" d="M 149.5,87.5 C 149.058,92.6945 148.058,92.6945 146.5,87.5C 145.416,88.6651 144.583,89.9984 144,91.5C 143.665,89.4971 142.832,87.8304 141.5,86.5C 142.5,86.5 143.5,86.5 144.5,86.5C 144.756,84.2075 144.423,82.0408 143.5,80C 144.833,78 146.167,78 147.5,80C 146.577,82.0408 146.244,84.2075 146.5,86.5C 147.791,86.2627 148.791,86.596 149.5,87.5 Z"/></g>
<g><path style="opacity:1" fill="#b9a996" d="M 91.5,86.5 C 92.791,86.2627 93.791,86.596 94.5,87.5C 92.5714,87.2308 90.9047,87.7308 89.5,89C 92.3647,89.1829 95.0314,89.6829 97.5,90.5C 90.6576,89.4853 84.1576,89.4853 78,90.5C 75.8333,90.1667 73.6667,89.8333 71.5,89.5C 70.8728,88.5832 70.5394,87.5832 70.5,86.5C 72.2884,85.3775 74.2884,85.2109 76.5,86C 75.5,86.3333 74.5,86.6667 73.5,87C 74.9552,89.0162 76.9552,89.8495 79.5,89.5C 79.5,88.1667 79.5,86.8333 79.5,85.5C 83.8926,85.4568 84.2259,85.9568 80.5,87C 81.6667,87.5 82.5,88.3333 83,89.5C 84.7839,85.575 87.6172,84.575 91.5,86.5 Z"/></g>
<g><path style="opacity:1" fill="#c8aa7a" d="M 106.5,87.5 C 108.957,87.2077 111.624,87.2077 114.5,87.5C 117.833,87.5 121.167,87.5 124.5,87.5C 123.306,88.7773 121.64,89.4439 119.5,89.5C 117.571,89.4604 115.738,89.1271 114,88.5C 113.692,89.3081 113.192,89.9747 112.5,90.5C 109.966,89.2117 107.466,89.2117 105,90.5C 103,89.8333 101,89.1667 99,88.5C 98.7216,89.4158 98.2216,90.0825 97.5,90.5C 95.0314,89.6829 92.3647,89.1829 89.5,89C 90.9047,87.7308 92.5714,87.2308 94.5,87.5C 95.8734,87.6567 97.2068,87.49 98.5,87C 96.4049,86.4444 96.2382,85.9444 98,85.5C 100.595,87.1458 103.428,87.8125 106.5,87.5 Z"/></g>
<g><path style="opacity:1" fill="#d8cfcc" d="M 32.5,85.5 C 33.4916,85.3284 34.1583,85.6618 34.5,86.5C 34.4464,88.2709 34.2797,90.2709 34,92.5C 36.068,90.6038 37.9013,88.6038 39.5,86.5C 39.9081,87.6431 40.5748,88.6431 41.5,89.5C 42.8415,87.9951 44.5082,87.3285 46.5,87.5C 47.2471,91.193 48.5804,91.193 50.5,87.5C 51.1667,88.1667 51.8333,88.8333 52.5,89.5C 54.1667,88.5 55.8333,87.5 57.5,86.5C 58.1667,86.8333 58.8333,87.1667 59.5,87.5C 58.3915,89.2141 59.0582,89.8808 61.5,89.5C 61.5,88.5 61.5,87.5 61.5,86.5C 63.6314,87.5417 65.6314,87.2084 67.5,85.5C 68.609,85.5569 69.609,85.8902 70.5,86.5C 70.5394,87.5832 70.8728,88.5832 71.5,89.5C 73.6667,89.8333 75.8333,90.1667 78,90.5C 84.1576,89.4853 90.6576,89.4853 97.5,90.5C 98.2216,90.0825 98.7216,89.4158 99,88.5C 101,89.1667 103,89.8333 105,90.5C 107.466,89.2117 109.966,89.2117 112.5,90.5C 113.192,89.9747 113.692,89.3081 114,88.5C 115.738,89.1271 117.571,89.4604 119.5,89.5C 121.64,89.4439 123.306,88.7773 124.5,87.5C 126.507,86.3215 126.84,86.8215 125.5,89C 126.416,89.3742 127.25,89.8742 128,90.5C 128.419,89.3279 129.085,88.3279 130,87.5C 131.784,90.0026 133.451,90.0026 135,87.5C 135.667,88.8333 136.667,89.8333 138,90.5C 137.645,89.0406 137.811,87.7072 138.5,86.5C 139.5,86.5 140.5,86.5 141.5,86.5C 142.832,87.8304 143.665,89.4971 144,91.5C 144.583,89.9984 145.416,88.6651 146.5,87.5C 148.058,92.6945 149.058,92.6945 149.5,87.5C 149.833,87.5 150.167,87.5 150.5,87.5C 152.048,87.8212 152.715,88.8212 152.5,90.5C 154.36,91.0715 156.027,91.0715 157.5,90.5C 157.007,92.8056 156.674,95.139 156.5,97.5C 158.903,97.448 161.236,97.7814 163.5,98.5C 163.5,104.833 163.5,111.167 163.5,117.5C 119.833,117.5 76.1667,117.5 32.5,117.5C 32.5,106.833 32.5,96.1667 32.5,85.5 Z"/></g>
<g><path style="opacity:1" fill="#37414f" d="M 163.5,89.5 C 163.5,92.5 163.5,95.5 163.5,98.5C 161.236,97.7814 158.903,97.448 156.5,97.5C 156.674,95.139 157.007,92.8056 157.5,90.5C 156.305,88.6499 156.971,87.6499 159.5,87.5C 160.006,88.8239 161.339,89.4906 163.5,89.5 Z"/></g>
<g><path style="opacity:1" fill="#dddddd" d="M 28.5,152.5 C 33.9586,152.103 39.2919,152.603 44.5,154C 48.1484,157.103 48.4818,160.603 45.5,164.5C 49.7385,169.333 49.4051,173.833 44.5,178C 39.1771,178.499 33.8437,178.666 28.5,178.5C 28.5,169.833 28.5,161.167 28.5,152.5 Z"/></g>
<g><path style="opacity:1" fill="#ededed" d="M 54.5,152.5 C 60.5,152.5 66.5,152.5 72.5,152.5C 72.5,153.5 72.5,154.5 72.5,155.5C 67.5,155.5 62.5,155.5 57.5,155.5C 57.5,158.167 57.5,160.833 57.5,163.5C 62.1667,163.5 66.8333,163.5 71.5,163.5C 71.5,164.5 71.5,165.5 71.5,166.5C 66.8333,166.5 62.1667,166.5 57.5,166.5C 57.5,169.5 57.5,172.5 57.5,175.5C 62.8333,175.5 68.1667,175.5 73.5,175.5C 73.5,176.5 73.5,177.5 73.5,178.5C 67.1667,178.5 60.8333,178.5 54.5,178.5C 54.5,169.833 54.5,161.167 54.5,152.5 Z"/></g>
<g><path style="opacity:1" fill="#edeeed" d="M 79.5,152.5 C 80.5,152.5 81.5,152.5 82.5,152.5C 82.5,161.167 82.5,169.833 82.5,178.5C 81.5,178.5 80.5,178.5 79.5,178.5C 79.5,169.833 79.5,161.167 79.5,152.5 Z"/></g>
<g><path style="opacity:1" fill="#d7d7d7" d="M 97.5,152.5 C 98.8333,152.5 100.167,152.5 101.5,152.5C 101.935,160.611 101.435,168.611 100,176.5C 95.6591,179.448 91.6591,179.115 88,175.5C 87.5065,173.866 87.3398,172.199 87.5,170.5C 90.5406,170.406 92.2072,171.906 92.5,175C 93.8989,175.595 95.2322,175.428 96.5,174.5C 97.4973,167.197 97.8306,159.863 97.5,152.5 Z"/></g>
<g><path style="opacity:1" fill="#d7d7d7" d="M 107.5,152.5 C 108.833,152.5 110.167,152.5 111.5,152.5C 111.5,161.167 111.5,169.833 111.5,178.5C 110.167,178.5 108.833,178.5 107.5,178.5C 107.5,169.833 107.5,161.167 107.5,152.5 Z"/></g>
<g><path style="opacity:1" fill="#d7d7d7" d="M 117.5,152.5 C 119.722,152.178 121.556,152.845 123,154.5C 126.667,160.167 130.333,165.833 134,171.5C 134.5,165.175 134.666,158.842 134.5,152.5C 135.833,152.5 137.167,152.5 138.5,152.5C 138.5,161.167 138.5,169.833 138.5,178.5C 136.278,178.822 134.444,178.155 133,176.5C 129.333,170.833 125.667,165.167 122,159.5C 121.5,165.825 121.334,172.158 121.5,178.5C 120.167,178.5 118.833,178.5 117.5,178.5C 117.5,169.833 117.5,161.167 117.5,152.5 Z"/></g>
<g><path style="opacity:1" fill="#dddddd" d="M 151.5,152.5 C 158.797,150.726 164.13,153.06 167.5,159.5C 164.953,160.539 162.953,159.705 161.5,157C 153.285,153.942 148.618,156.775 147.5,165.5C 149.26,175.047 154.594,177.714 163.5,173.5C 164.452,171.955 164.785,170.288 164.5,168.5C 161.833,168.5 159.167,168.5 156.5,168.5C 156.5,167.5 156.5,166.5 156.5,165.5C 160.167,165.5 163.833,165.5 167.5,165.5C 170.115,174.542 166.782,178.875 157.5,178.5C 149.019,178.354 144.352,174.021 143.5,165.5C 143.904,159.678 146.571,155.344 151.5,152.5 Z"/></g>
<g><path style="opacity:1" fill="#242424" d="M 32.5,155.5 C 36.2148,155.423 39.8815,155.756 43.5,156.5C 43.5,158.5 43.5,160.5 43.5,162.5C 39.8815,163.244 36.2148,163.577 32.5,163.5C 32.5,160.833 32.5,158.167 32.5,155.5 Z"/></g>
<g><path style="opacity:1" fill="#232323" d="M 32.5,166.5 C 36.2733,166.263 39.9399,166.763 43.5,168C 44.9817,170.592 44.6483,172.925 42.5,175C 39.1832,175.498 35.8499,175.665 32.5,175.5C 32.5,172.5 32.5,169.5 32.5,166.5 Z"/></g>
</svg>
