<?xml version="1.0" encoding="UTF-8"?>
<!DOCTYPE svg PUBLIC "-//W3C//DTD SVG 1.1//EN" "http://www.w3.org/Graphics/SVG/1.1/DTD/svg11.dtd">
<svg xmlns="http://www.w3.org/2000/svg" version="1.1" width="200px" height="200px" style="shape-rendering:geometricPrecision; text-rendering:geometricPrecision; image-rendering:optimizeQuality; fill-rule:evenodd; clip-rule:evenodd" xmlns:xlink="http://www.w3.org/1999/xlink">
<g><path style="opacity:0.998" fill="#222222" d="M 8.5,-0.5 C 69.1667,-0.5 129.833,-0.5 190.5,-0.5C 191.987,0.803551 193.654,1.97022 195.5,3C 196.697,5.01533 198.03,6.84866 199.5,8.5C 199.5,69.1667 199.5,129.833 199.5,190.5C 198.196,191.987 197.03,193.654 196,195.5C 193.985,196.697 192.151,198.03 190.5,199.5C 129.833,199.5 69.1667,199.5 8.5,199.5C 7.01307,198.196 5.3464,197.03 3.5,196C 2.30342,193.985 0.970083,192.151 -0.5,190.5C -0.5,129.833 -0.5,69.1667 -0.5,8.5C 0.803551,7.01307 1.97022,5.3464 3,3.5C 5.01533,2.30342 6.84866,0.970083 8.5,-0.5 Z"/></g>
<g><path style="opacity:1" fill="#eec72d" d="M 15.5,9.5 C 71.501,9.33334 127.501,9.50001 183.5,10C 186,11.1667 187.833,13 189,15.5C 189.5,56.832 189.667,98.1653 189.5,139.5C 129.5,139.5 69.5,139.5 9.5,139.5C 9.33334,98.1653 9.50001,56.832 10,15.5C 11.3597,12.9774 13.193,10.9774 15.5,9.5 Z"/></g>
<g><path style="opacity:1" fill="#010000" d="M 98.5,36.5 C 96.744,37.5521 96.0773,39.2188 96.5,41.5C 102.833,41.5 109.167,41.5 115.5,41.5C 115.19,38.2869 115.523,35.2869 116.5,32.5C 119.097,32.6432 121.431,33.4766 123.5,35C 122.437,36.1882 121.103,36.6882 119.5,36.5C 119.5,38.1667 119.5,39.8333 119.5,41.5C 124.334,42.4098 128.334,41.0765 131.5,37.5C 133.924,38.4229 135.924,39.9229 137.5,42C 131.509,42.4995 125.509,42.6662 119.5,42.5C 119.032,46.1313 119.699,49.4646 121.5,52.5C 116.88,53.4933 112.214,53.8266 107.5,53.5C 107.5,56.1667 107.5,58.8333 107.5,61.5C 113.509,61.6662 119.509,61.4995 125.5,61C 126.047,60.0754 126.713,59.2421 127.5,58.5C 128.981,59.4803 130.315,60.647 131.5,62C 128.833,65.6667 128.833,69.3333 131.5,73C 123.507,73.4997 115.507,73.6664 107.5,73.5C 107.5,76.5 107.5,79.5 107.5,82.5C 113.176,82.6661 118.843,82.4994 124.5,82C 125.354,80.9783 126.354,80.1449 127.5,79.5C 129.924,80.4229 131.924,81.9229 133.5,84C 124.506,84.4998 115.506,84.6664 106.5,84.5C 106.167,87.1667 105.833,89.8333 105.5,92.5C 113.507,92.6664 121.507,92.4997 129.5,92C 130.354,90.9783 131.354,90.1449 132.5,89.5C 134.924,90.4229 136.924,91.9229 138.5,94C 127.167,94.3333 115.833,94.6667 104.5,95C 97.2094,106.98 86.5427,113.313 72.5,114C 82.4488,111.612 90.9488,106.779 98,99.5C 99.0086,97.9751 99.5086,96.3084 99.5,94.5C 91.4441,94.1981 83.4441,94.5315 75.5,95.5C 74.6143,94.675 74.281,93.675 74.5,92.5C 83.5,92.5 92.5,92.5 101.5,92.5C 102.092,89.8728 102.425,87.2062 102.5,84.5C 94.328,84.9657 86.328,84.4657 78.5,83C 86.8267,82.5003 95.16,82.3336 103.5,82.5C 103.5,79.5 103.5,76.5 103.5,73.5C 98.1254,73.1718 92.7921,73.5052 87.5,74.5C 86.7579,75.2868 85.9246,75.9535 85,76.5C 83.875,73.5219 83.375,70.3552 83.5,67C 83.6667,64.1667 83.8333,61.3333 84,58.5C 85.4194,59.4601 86.9194,60.2935 88.5,61C 93.4889,61.4993 98.4889,61.6659 103.5,61.5C 103.5,58.8333 103.5,56.1667 103.5,53.5C 100.111,53.6321 96.7772,53.7988 93.5,54C 93.3786,50.3462 93.0452,46.6795 92.5,43C 88.4649,42.3035 84.4649,42.4701 80.5,43.5C 78.9996,43.5472 77.9996,42.8805 77.5,41.5C 82.4277,41.3165 87.4277,41.1499 92.5,41C 93.8333,38.3333 93.8333,35.6667 92.5,33C 95.4636,32.4314 98.1302,33.0981 100.5,35C 99.9558,35.7172 99.2891,36.2172 98.5,36.5 Z"/></g>
<g><path style="opacity:1" fill="#000000" d="M 60.5,33.5 C 65.6621,35.4935 70.1621,38.4935 74,42.5C 74.49,43.7932 74.6567,45.1266 74.5,46.5C 73.0222,46.762 71.6888,46.4287 70.5,45.5C 67.4675,41.1444 64.1341,37.1444 60.5,33.5 Z"/></g>
<g><path style="opacity:1" fill="#9b8019" d="M 116.5,32.5 C 115.523,35.2869 115.19,38.2869 115.5,41.5C 109.167,41.5 102.833,41.5 96.5,41.5C 96.0773,39.2188 96.744,37.5521 98.5,36.5C 97.7659,37.7079 97.4326,39.0413 97.5,40.5C 103.167,40.5 108.833,40.5 114.5,40.5C 114.183,37.4281 114.516,34.4281 115.5,31.5C 116.107,31.6236 116.44,31.9569 116.5,32.5 Z"/></g>
<g><path style="opacity:1" fill="#977d18" d="M 96.5,42.5 C 102.833,42.5 109.167,42.5 115.5,42.5C 115.5,45.5 115.5,48.5 115.5,51.5C 109.167,51.5 102.833,51.5 96.5,51.5C 96.5,48.5 96.5,45.5 96.5,42.5 Z"/></g>
<g><path style="opacity:1" fill="#efc92d" d="M 97.5,43.5 C 103.167,43.5 108.833,43.5 114.5,43.5C 114.5,45.8333 114.5,48.1667 114.5,50.5C 108.833,50.5 103.167,50.5 97.5,50.5C 97.5,48.1667 97.5,45.8333 97.5,43.5 Z"/></g>
<g><path style="opacity:1" fill="#000000" d="M 54.5,55.5 C 59.7454,57.3733 64.2454,60.3733 68,64.5C 68.49,65.7932 68.6567,67.1266 68.5,68.5C 67.0222,68.762 65.6888,68.4287 64.5,67.5C 61.4675,63.1444 58.1341,59.1444 54.5,55.5 Z"/></g>
<g><path style="opacity:1" fill="#e4bf2b" d="M 87.5,63.5 C 92.8333,63.5 98.1667,63.5 103.5,63.5C 103.5,66.5 103.5,69.5 103.5,72.5C 98.1667,72.5 92.8333,72.5 87.5,72.5C 87.5,69.5 87.5,66.5 87.5,63.5 Z"/></g>
<g><path style="opacity:1" fill="#eec72d" d="M 108.5,63.5 C 114.167,63.5 119.833,63.5 125.5,63.5C 125.5,66.1667 125.5,68.8333 125.5,71.5C 119.833,71.5 114.167,71.5 108.5,71.5C 108.5,68.8333 108.5,66.1667 108.5,63.5 Z"/></g>
<g><path style="opacity:1" fill="#977d18" d="M 108.5,63.5 C 108.5,66.1667 108.5,68.8333 108.5,71.5C 114.167,71.5 119.833,71.5 125.5,71.5C 119.69,72.4896 113.69,72.8229 107.5,72.5C 107.19,69.2869 107.523,66.2869 108.5,63.5 Z"/></g>
<g><path style="opacity:1" fill="#090702" d="M 73.5,76.5 C 74.0431,76.56 74.3764,76.8933 74.5,77.5C 68.9844,88.5311 63.4844,99.5311 58,110.5C 56.3804,108.759 54.8804,106.925 53.5,105C 61.5301,96.4336 68.1968,86.9336 73.5,76.5 Z"/></g>
<g><path style="opacity:1" fill="#020100" d="M 109.5,102.5 C 118.451,102.971 127.118,105.471 135.5,110C 137.037,111.11 137.703,112.61 137.5,114.5C 128.435,109.97 119.102,105.97 109.5,102.5 Z"/></g>
<g><path style="opacity:1" fill="#dbdbdb" d="M 7.5,154.5 C 14.4861,152.829 19.4861,155.162 22.5,161.5C 21.8333,161.833 21.1667,162.167 20.5,162.5C 18.3911,160.22 15.8911,158.554 13,157.5C 10.0946,157.559 7.92795,158.726 6.5,161C 6.75908,162.261 7.42575,163.261 8.5,164C 13.5635,164.552 18.0635,166.385 22,169.5C 23.8923,175.042 22.0589,178.542 16.5,180C 11.8481,181.193 7.68144,180.36 4,177.5C 2.87201,175.655 2.37201,173.655 2.5,171.5C 3.67504,171.281 4.67504,171.614 5.5,172.5C 8.4904,177.868 12.6571,178.868 18,175.5C 18.7975,173.741 18.6309,172.074 17.5,170.5C 12.3735,169.77 7.87345,167.77 4,164.5C 2.58117,160.082 3.74784,156.749 7.5,154.5 Z"/></g>
<g><path style="opacity:1" fill="#edeeed" d="M 28.5,154.5 C 29.5,154.5 30.5,154.5 31.5,154.5C 31.5,163.167 31.5,171.833 31.5,180.5C 30.5,180.5 29.5,180.5 28.5,180.5C 28.5,171.833 28.5,163.167 28.5,154.5 Z"/></g>
<g><path style="opacity:1" fill="#e7e7e7" d="M 53.5,172.5 C 53.7828,173.289 54.2828,173.956 55,174.5C 55.4996,167.842 55.6663,161.175 55.5,154.5C 56.5,154.5 57.5,154.5 58.5,154.5C 58.5,163.167 58.5,171.833 58.5,180.5C 56.8561,180.714 55.3561,180.38 54,179.5C 50.275,173.948 46.775,168.282 43.5,162.5C 43.2172,161.711 42.7172,161.044 42,160.5C 41.5004,167.158 41.3337,173.825 41.5,180.5C 40.5,180.5 39.5,180.5 38.5,180.5C 38.5,171.833 38.5,163.167 38.5,154.5C 40.1439,154.286 41.6439,154.62 43,155.5C 46.725,161.052 50.225,166.718 53.5,172.5 Z"/></g>
<g><path style="opacity:1" fill="#7c7c7c" d="M 55.5,154.5 C 55.6663,161.175 55.4996,167.842 55,174.5C 54.2828,173.956 53.7828,173.289 53.5,172.5C 54.1667,166.5 54.8333,160.5 55.5,154.5 Z"/></g>
<g><path style="opacity:1" fill="#dddddd" d="M 71.5,154.5 C 84.8409,153.34 90.3409,159.34 88,172.5C 84.6282,179.433 79.1282,181.933 71.5,180C 63.5509,174.818 61.7176,167.985 66,159.5C 67.7297,157.598 69.563,155.931 71.5,154.5 Z"/></g>
<g><path style="opacity:1" fill="#e5e5e5" d="M 94.5,154.5 C 99.1785,154.334 103.845,154.501 108.5,155C 110.329,155.273 111.829,156.107 113,157.5C 113.929,161.244 113.429,164.744 111.5,168C 106.964,169.379 102.297,169.879 97.5,169.5C 97.5,173.167 97.5,176.833 97.5,180.5C 96.5,180.5 95.5,180.5 94.5,180.5C 94.5,171.833 94.5,163.167 94.5,154.5 Z"/></g>
<g><path style="opacity:1" fill="#d8d8d8" d="M 118.5,154.5 C 119.833,154.5 121.167,154.5 122.5,154.5C 122.5,158.167 122.5,161.833 122.5,165.5C 126.833,165.5 131.167,165.5 135.5,165.5C 135.5,161.833 135.5,158.167 135.5,154.5C 136.833,154.5 138.167,154.5 139.5,154.5C 139.5,163.167 139.5,171.833 139.5,180.5C 138.167,180.5 136.833,180.5 135.5,180.5C 135.5,176.5 135.5,172.5 135.5,168.5C 131.167,168.5 126.833,168.5 122.5,168.5C 122.5,172.5 122.5,176.5 122.5,180.5C 121.167,180.5 119.833,180.5 118.5,180.5C 118.5,171.833 118.5,163.167 118.5,154.5 Z"/></g>
<g><path style="opacity:1" fill="#d7d7d7" d="M 145.5,154.5 C 146.833,154.5 148.167,154.5 149.5,154.5C 149.5,163.167 149.5,171.833 149.5,180.5C 148.167,180.5 146.833,180.5 145.5,180.5C 145.5,171.833 145.5,163.167 145.5,154.5 Z"/></g>
<g><path style="opacity:1" fill="#ececec" d="M 155.5,154.5 C 156.5,154.5 157.5,154.5 158.5,154.5C 158.5,162.167 158.5,169.833 158.5,177.5C 163.167,177.5 167.833,177.5 172.5,177.5C 172.5,178.5 172.5,179.5 172.5,180.5C 166.833,180.5 161.167,180.5 155.5,180.5C 155.5,171.833 155.5,163.167 155.5,154.5 Z"/></g>
<g><path style="opacity:1" fill="#ebebeb" d="M 176.5,154.5 C 182.833,154.5 189.167,154.5 195.5,154.5C 195.5,155.5 195.5,156.5 195.5,157.5C 190.167,157.5 184.833,157.5 179.5,157.5C 179.5,160.167 179.5,162.833 179.5,165.5C 184.5,165.5 189.5,165.5 194.5,165.5C 194.5,166.5 194.5,167.5 194.5,168.5C 189.5,168.5 184.5,168.5 179.5,168.5C 179.5,171.5 179.5,174.5 179.5,177.5C 184.833,177.5 190.167,177.5 195.5,177.5C 195.5,178.5 195.5,179.5 195.5,180.5C 189.167,180.5 182.833,180.5 176.5,180.5C 176.5,171.833 176.5,163.167 176.5,154.5 Z"/></g>
<g><path style="opacity:1" fill="#252525" d="M 73.5,157.5 C 83.3154,157.746 86.8154,162.746 84,172.5C 79.4865,178.747 74.4865,179.08 69,173.5C 66.4831,166.886 67.9831,161.552 73.5,157.5 Z"/></g>
<g><path style="opacity:1" fill="#232323" d="M 97.5,157.5 C 101.584,157.043 105.417,157.71 109,159.5C 109.896,162.025 109.396,164.192 107.5,166C 104.183,166.498 100.85,166.665 97.5,166.5C 97.5,163.5 97.5,160.5 97.5,157.5 Z"/></g>
<g><path style="opacity:1" fill="#7c7c7c" d="M 43.5,162.5 C 42.8333,168.5 42.1667,174.5 41.5,180.5C 41.3337,173.825 41.5004,167.158 42,160.5C 42.7172,161.044 43.2172,161.711 43.5,162.5 Z"/></g>
</svg>
