<?xml version="1.0" encoding="UTF-8"?>
<!DOCTYPE svg PUBLIC "-//W3C//DTD SVG 1.1//EN" "http://www.w3.org/Graphics/SVG/1.1/DTD/svg11.dtd">
<svg xmlns="http://www.w3.org/2000/svg" version="1.1" width="200px" height="200px" style="shape-rendering:geometricPrecision; text-rendering:geometricPrecision; image-rendering:optimizeQuality; fill-rule:evenodd; clip-rule:evenodd" xmlns:xlink="http://www.w3.org/1999/xlink">
<g><path style="opacity:0.998" fill="#222222" d="M 8.5,-0.5 C 69.1667,-0.5 129.833,-0.5 190.5,-0.5C 191.987,0.803551 193.654,1.97022 195.5,3C 196.697,5.01533 198.03,6.84866 199.5,8.5C 199.5,69.1667 199.5,129.833 199.5,190.5C 198.196,191.987 197.03,193.654 196,195.5C 193.985,196.697 192.151,198.03 190.5,199.5C 129.833,199.5 69.1667,199.5 8.5,199.5C 7.01307,198.196 5.3464,197.03 3.5,196C 2.30342,193.985 0.970083,192.151 -0.5,190.5C -0.5,129.833 -0.5,69.1667 -0.5,8.5C 0.803551,7.01307 1.97022,5.3464 3,3.5C 5.01533,2.30342 6.84866,0.970083 8.5,-0.5 Z"/></g>
<g><path style="opacity:1" fill="#141414" d="M 17.5,9.5 C 73.2257,9.01241 128.892,9.51241 184.5,11C 186.81,12.6374 188.31,14.804 189,17.5C 189.5,58.1653 189.667,98.832 189.5,139.5C 129.5,139.5 69.5,139.5 9.5,139.5C 9.33334,98.832 9.50001,58.1653 10,17.5C 11.3532,13.6499 13.8532,10.9832 17.5,9.5 Z"/></g>
<g><path style="opacity:1" fill="#f5f5f5" d="M 61.5,50.5 C 63.1667,50.5 64.8333,50.5 66.5,50.5C 66.3341,55.5111 66.5007,60.5111 67,65.5C 73.5856,60.0288 79.919,60.3621 86,66.5C 86.4998,75.4938 86.6664,84.4938 86.5,93.5C 84.8333,93.5 83.1667,93.5 81.5,93.5C 81.8699,85.097 81.3699,76.7637 80,68.5C 75.4983,65.7705 71.4983,66.4372 68,70.5C 67.5003,78.1594 67.3336,85.8261 67.5,93.5C 65.5,93.5 63.5,93.5 61.5,93.5C 61.5,79.1667 61.5,64.8333 61.5,50.5 Z"/></g>
<g><path style="opacity:1" fill="#f3f3f3" d="M 95.5,50.5 C 97.5,50.5 99.5,50.5 101.5,50.5C 101.5,52.1667 101.5,53.8333 101.5,55.5C 99.5,55.5 97.5,55.5 95.5,55.5C 95.5,53.8333 95.5,52.1667 95.5,50.5 Z"/></g>
<g><path style="opacity:1" fill="#ededed" d="M 37.5,61.5 C 46.0528,59.2841 52.0528,62.1174 55.5,70C 54.0558,72.0345 52.0558,72.8678 49.5,72.5C 49.1631,68.6667 46.9964,66.6667 43,66.5C 39.1864,66.9814 36.5197,68.9814 35,72.5C 34.2093,76.9255 34.5427,81.2589 36,85.5C 42.0188,91.155 46.8521,90.3217 50.5,83C 52.1341,82.5065 53.8008,82.3398 55.5,82.5C 54.0715,92.966 48.0715,96.7993 37.5,94C 29.8073,89.2703 26.974,82.437 29,73.5C 30.1069,68.2341 32.9402,64.2341 37.5,61.5 Z"/></g>
<g><path style="opacity:1" fill="#ededed" d="M 119.5,61.5 C 125.386,60.3435 130.219,62.0102 134,66.5C 135.381,75.4321 135.881,84.4321 135.5,93.5C 133.5,93.5 131.5,93.5 129.5,93.5C 129.87,85.097 129.37,76.7637 128,68.5C 123.498,65.7705 119.498,66.4372 116,70.5C 115.5,78.1594 115.334,85.8261 115.5,93.5C 113.5,93.5 111.5,93.5 109.5,93.5C 109.5,83.1667 109.5,72.8333 109.5,62.5C 111.167,62.5 112.833,62.5 114.5,62.5C 114.351,63.552 114.517,64.552 115,65.5C 116.397,63.9297 117.897,62.5964 119.5,61.5 Z"/></g>
<g><path style="opacity:1" fill="#f2f2f2" d="M 150.5,61.5 C 155.765,60.5706 160.265,61.9039 164,65.5C 164.483,64.552 164.649,63.552 164.5,62.5C 166.167,62.5 167.833,62.5 169.5,62.5C 169.667,74.1714 169.5,85.8381 169,97.5C 164.652,105.108 158.152,107.608 149.5,105C 145.094,103.353 142.761,100.187 142.5,95.5C 145.864,94.7893 148.197,95.956 149.5,99C 153.452,100.793 157.452,100.793 161.5,99C 163.464,96.6878 163.797,94.1878 162.5,91.5C 149.774,95.8078 142.774,91.1411 141.5,77.5C 141.413,70.3326 144.413,64.9992 150.5,61.5 Z"/></g>
<g><path style="opacity:1" fill="#f3f3f3" d="M 95.5,62.5 C 97.5,62.5 99.5,62.5 101.5,62.5C 101.5,72.8333 101.5,83.1667 101.5,93.5C 99.5,93.5 97.5,93.5 95.5,93.5C 95.5,83.1667 95.5,72.8333 95.5,62.5 Z"/></g>
<g><path style="opacity:1" fill="#171717" d="M 154.5,66.5 C 161.29,66.9588 164.623,70.6255 164.5,77.5C 164.828,83.6663 161.995,87.3329 156,88.5C 149.976,87.3086 147.143,83.642 147.5,77.5C 147.097,71.9495 149.431,68.2828 154.5,66.5 Z"/></g>
<g><path style="opacity:1" fill="#d8d8d8" d="M 7.5,154.5 C 11.3076,154.163 14.9743,154.663 18.5,156C 20.1554,157.444 20.822,159.278 20.5,161.5C 18.0655,159.626 15.2322,158.293 12,157.5C 10.5603,158.148 9.06025,158.481 7.5,158.5C 7.23798,159.978 7.57131,161.311 8.5,162.5C 12.8472,163.392 16.8472,165.058 20.5,167.5C 22.5509,172.06 21.2176,175.226 16.5,177C 11.5626,178.369 7.39595,177.203 4,173.5C 3.50999,172.207 3.34332,170.873 3.5,169.5C 6.17208,171.316 9.00542,172.983 12,174.5C 15.0727,174.542 17.2394,173.208 18.5,170.5C 18.2907,169.914 17.9574,169.414 17.5,169C 12.1981,168.352 7.69807,166.185 4,162.5C 3.33333,161.167 3.33333,159.833 4,158.5C 5.37561,157.295 6.54227,155.962 7.5,154.5 Z"/></g>
<g><path style="opacity:1" fill="#edeeed" d="M 26.5,154.5 C 27.5,154.5 28.5,154.5 29.5,154.5C 29.5,162.167 29.5,169.833 29.5,177.5C 28.5,177.5 27.5,177.5 26.5,177.5C 26.5,169.833 26.5,162.167 26.5,154.5 Z"/></g>
<g><path style="opacity:1" fill="#e3e3e3" d="M 35.5,154.5 C 36.9778,154.238 38.3112,154.571 39.5,155.5C 43.1966,160.698 46.6966,166.031 50,171.5C 50.4994,165.843 50.6661,160.176 50.5,154.5C 51.5,154.5 52.5,154.5 53.5,154.5C 53.5,162.167 53.5,169.833 53.5,177.5C 52.0222,177.762 50.6888,177.429 49.5,176.5C 45.8034,171.302 42.3034,165.969 39,160.5C 38.5006,166.157 38.3339,171.824 38.5,177.5C 37.5,177.5 36.5,177.5 35.5,177.5C 35.5,169.833 35.5,162.167 35.5,154.5 Z"/></g>
<g><path style="opacity:1" fill="#d9d9d9" d="M 64.5,154.5 C 77.684,153.846 82.5174,159.846 79,172.5C 73.5527,178.29 67.5527,178.957 61,174.5C 56.7379,166.655 57.9045,159.988 64.5,154.5 Z"/></g>
<g><path style="opacity:1" fill="#d7d7d7" d="M 84.5,154.5 C 89.5111,154.334 94.5111,154.501 99.5,155C 103.115,158.659 103.448,162.659 100.5,167C 96.6049,168.266 92.6049,168.766 88.5,168.5C 88.5,171.5 88.5,174.5 88.5,177.5C 87.1667,177.5 85.8333,177.5 84.5,177.5C 84.5,169.833 84.5,162.167 84.5,154.5 Z"/></g>
<g><path style="opacity:1" fill="#d1d1d1" d="M 106.5,154.5 C 107.833,154.5 109.167,154.5 110.5,154.5C 110.5,157.5 110.5,160.5 110.5,163.5C 114.5,163.5 118.5,163.5 122.5,163.5C 122.5,160.5 122.5,157.5 122.5,154.5C 123.5,154.5 124.5,154.5 125.5,154.5C 125.5,162.167 125.5,169.833 125.5,177.5C 124.167,177.5 122.833,177.5 121.5,177.5C 121.5,173.833 121.5,170.167 121.5,166.5C 117.833,166.5 114.167,166.5 110.5,166.5C 110.5,170.167 110.5,173.833 110.5,177.5C 109.167,177.5 107.833,177.5 106.5,177.5C 106.5,169.833 106.5,162.167 106.5,154.5 Z"/></g>
<g><path style="opacity:1" fill="#dadada" d="M 136.5,154.5 C 148.988,153.494 153.821,159.161 151,171.5C 146.803,177.471 141.303,178.971 134.5,176C 127.318,167.978 127.984,160.811 136.5,154.5 Z"/></g>
<g><path style="opacity:1" fill="#e2e2e2" d="M 156.5,154.5 C 160.846,154.334 165.179,154.501 169.5,155C 173.035,157.838 173.368,161.005 170.5,164.5C 174.058,168.026 174.392,171.86 171.5,176C 166.599,177.325 161.599,177.825 156.5,177.5C 156.5,169.833 156.5,162.167 156.5,154.5 Z"/></g>
<g><path style="opacity:1" fill="#eaeaea" d="M 178.5,154.5 C 183.833,154.5 189.167,154.5 194.5,154.5C 194.5,155.5 194.5,156.5 194.5,157.5C 190.167,157.5 185.833,157.5 181.5,157.5C 181.5,159.5 181.5,161.5 181.5,163.5C 185.833,163.5 190.167,163.5 194.5,163.5C 194.5,164.5 194.5,165.5 194.5,166.5C 190.167,166.5 185.833,166.5 181.5,166.5C 181.5,169.167 181.5,171.833 181.5,174.5C 186.167,174.5 190.833,174.5 195.5,174.5C 195.5,175.5 195.5,176.5 195.5,177.5C 189.833,177.5 184.167,177.5 178.5,177.5C 178.5,169.833 178.5,162.167 178.5,154.5 Z"/></g>
<g><path style="opacity:1" fill="#252525" d="M 66.5,157.5 C 75.2128,157.719 78.3795,162.052 76,170.5C 68.3502,176.881 63.5169,175.214 61.5,165.5C 61.6724,161.807 63.3391,159.141 66.5,157.5 Z"/></g>
<g><path style="opacity:1" fill="#232323" d="M 88.5,157.5 C 91.5788,157.26 94.5788,157.593 97.5,158.5C 98.4656,160.396 98.7989,162.396 98.5,164.5C 95.2139,165.207 91.8806,165.54 88.5,165.5C 88.5,162.833 88.5,160.167 88.5,157.5 Z"/></g>
<g><path style="opacity:1" fill="#262626" d="M 137.5,157.5 C 148.487,158.306 151.153,163.472 145.5,173C 135.868,175.369 132.034,171.536 134,161.5C 135.376,160.295 136.542,158.962 137.5,157.5 Z"/></g>
<g><path style="opacity:1" fill="#232323" d="M 159.5,157.5 C 161.857,157.337 164.19,157.503 166.5,158C 170.5,159.667 170.5,161.333 166.5,163C 164.19,163.497 161.857,163.663 159.5,163.5C 159.5,161.5 159.5,159.5 159.5,157.5 Z"/></g>
<g><path style="opacity:1" fill="#242424" d="M 159.5,166.5 C 162.881,166.46 166.214,166.793 169.5,167.5C 169.756,169.792 169.423,171.959 168.5,174C 165.518,174.498 162.518,174.665 159.5,174.5C 159.5,171.833 159.5,169.167 159.5,166.5 Z"/></g>
</svg>
