<?xml version="1.0" encoding="UTF-8"?>
<!DOCTYPE svg PUBLIC "-//W3C//DTD SVG 1.1//EN" "http://www.w3.org/Graphics/SVG/1.1/DTD/svg11.dtd">
<svg xmlns="http://www.w3.org/2000/svg" version="1.1" width="200px" height="200px" style="shape-rendering:geometricPrecision; text-rendering:geometricPrecision; image-rendering:optimizeQuality; fill-rule:evenodd; clip-rule:evenodd" xmlns:xlink="http://www.w3.org/1999/xlink">
<g><path style="opacity:0.998" fill="#222222" d="M 8.5,-0.5 C 69.1667,-0.5 129.833,-0.5 190.5,-0.5C 191.987,0.803551 193.654,1.97022 195.5,3C 196.697,5.01533 198.03,6.84866 199.5,8.5C 199.5,69.1667 199.5,129.833 199.5,190.5C 198.196,191.987 197.03,193.654 196,195.5C 193.985,196.697 192.151,198.03 190.5,199.5C 129.833,199.5 69.1667,199.5 8.5,199.5C 7.01307,198.196 5.3464,197.03 3.5,196C 2.30342,193.985 0.970083,192.151 -0.5,190.5C -0.5,129.833 -0.5,69.1667 -0.5,8.5C 0.803551,7.01307 1.97022,5.3464 3,3.5C 5.01533,2.30342 6.84866,0.970083 8.5,-0.5 Z"/></g>
<g><path style="opacity:1" fill="#339503" d="M 15.5,9.5 C 70.8343,9.33334 126.168,9.50001 181.5,10C 185.02,10.504 187.52,12.3374 189,15.5C 189.5,56.832 189.667,98.1653 189.5,139.5C 129.5,139.5 69.5,139.5 9.5,139.5C 9.33334,98.1653 9.50001,56.832 10,15.5C 11.3597,12.9774 13.193,10.9774 15.5,9.5 Z"/></g>
<g><path style="opacity:1" fill="#000100" d="M 41.5,81.5 C 41.8333,81.5 42.1667,81.5 42.5,81.5C 46.2512,107.757 60.9179,124.59 86.5,132C 103.648,136.825 116.481,131.658 125,116.5C 130.098,100.191 125.264,87.6907 110.5,79C 104.683,77.0138 98.6835,76.0138 92.5,76C 72.6863,68.5356 66.1863,54.7022 73,34.5C 74.8333,32 76.6667,29.5 78.5,27C 81.0703,24.9131 83.737,23.0798 86.5,21.5C 87.2389,21.631 87.9056,21.4643 88.5,21C 87.5842,20.7216 86.9175,20.2216 86.5,19.5C 120.761,15.7101 143.594,30.0434 155,62.5C 160.139,94.6633 147.973,117.497 118.5,131C 84.0228,140.073 59.1895,128.573 44,96.5C 42.3274,91.6372 41.494,86.6372 41.5,81.5 Z"/></g>
<g><path style="opacity:1" fill="#339402" d="M 86.5,21.5 C 83.737,23.0798 81.0703,24.9131 78.5,27C 76.6667,29.5 74.8333,32 73,34.5C 66.1863,54.7022 72.6863,68.5356 92.5,76C 98.6835,76.0138 104.683,77.0138 110.5,79C 125.264,87.6907 130.098,100.191 125,116.5C 116.481,131.658 103.648,136.825 86.5,132C 60.9179,124.59 46.2512,107.757 42.5,81.5C 41.5692,50.0181 56.2358,30.0181 86.5,21.5 Z"/></g>
<g><path style="opacity:1" fill="#0a1501" d="M 86.5,19.5 C 86.9175,20.2216 87.5842,20.7216 88.5,21C 87.9056,21.4643 87.2389,21.631 86.5,21.5C 56.2358,30.0181 41.5692,50.0181 42.5,81.5C 42.1667,81.5 41.8333,81.5 41.5,81.5C 40.2564,49.4008 55.2564,28.7341 86.5,19.5 Z"/></g>
<g><path style="opacity:1" fill="#318e02" d="M 95.5,40.5 C 102.674,39.5187 106.174,42.5187 106,49.5C 104.089,54.418 100.589,56.2514 95.5,55C 88.8665,50.0351 88.8665,45.2017 95.5,40.5 Z"/></g>
<g><path style="opacity:1" fill="#000200" d="M 95.5,97.5 C 105.11,97.9359 107.776,102.436 103.5,111C 94.3188,114.325 90.4855,111.158 92,101.5C 93.3756,100.295 94.5423,98.9616 95.5,97.5 Z"/></g>
<g><path style="opacity:1" fill="#edeeed" d="M 23.5,175.5 C 23.5,169.167 23.5,162.833 23.5,156.5C 21.1667,156.5 18.8333,156.5 16.5,156.5C 16.5,155.5 16.5,154.5 16.5,153.5C 22.5,153.5 28.5,153.5 34.5,153.5C 34.5,154.5 34.5,155.5 34.5,156.5C 32.1667,156.5 29.8333,156.5 27.5,156.5C 27.5,162.833 27.5,169.167 27.5,175.5C 26.1667,175.5 24.8333,175.5 23.5,175.5 Z"/></g>
<g><path style="opacity:1" fill="#e5e5e5" d="M 45.5,169.5 C 43.7354,168.539 41.7354,168.205 39.5,168.5C 39.5,170.833 39.5,173.167 39.5,175.5C 38.1667,175.5 36.8333,175.5 35.5,175.5C 35.5,168.167 35.5,160.833 35.5,153.5C 40.1785,153.334 44.8452,153.501 49.5,154C 50.9308,154.465 52.0975,155.299 53,156.5C 54.1925,161.17 53.3592,165.337 50.5,169C 51.5355,170.901 52.7022,172.735 54,174.5C 57.194,167.917 60.194,161.25 63,154.5C 65,153.167 67,153.167 69,154.5C 71.9308,161.126 74.7641,167.792 77.5,174.5C 74.2714,176.181 72.2714,175.181 71.5,171.5C 67.878,170.341 64.2113,170.175 60.5,171C 59.8333,172.333 59.1667,173.667 58.5,175C 55.5,175.667 52.5,175.667 49.5,175C 48.3034,172.985 46.9701,171.151 45.5,169.5 Z"/></g>
<g><path style="opacity:1" fill="#e4e4e4" d="M 78.5,153.5 C 83.1785,153.334 87.8452,153.501 92.5,154C 99.5746,157.545 101.408,163.045 98,170.5C 96.8333,171.667 95.6667,172.833 94.5,174C 89.2919,175.397 83.9586,175.897 78.5,175.5C 78.5,168.167 78.5,160.833 78.5,153.5 Z"/></g>
<g><path style="opacity:1" fill="#edeeed" d="M 101.5,153.5 C 102.833,153.5 104.167,153.5 105.5,153.5C 105.5,160.833 105.5,168.167 105.5,175.5C 104.167,175.5 102.833,175.5 101.5,175.5C 101.5,168.167 101.5,160.833 101.5,153.5 Z"/></g>
<g><path style="opacity:1" fill="#e9e9e9" d="M 106.5,153.5 C 112.5,153.5 118.5,153.5 124.5,153.5C 124.5,154.5 124.5,155.5 124.5,156.5C 122.167,156.5 119.833,156.5 117.5,156.5C 117.5,162.833 117.5,169.167 117.5,175.5C 116.167,175.5 114.833,175.5 113.5,175.5C 113.5,169.167 113.5,162.833 113.5,156.5C 111.167,156.5 108.833,156.5 106.5,156.5C 106.5,155.5 106.5,154.5 106.5,153.5 Z"/></g>
<g><path style="opacity:1" fill="#7e7e7e" d="M 106.5,153.5 C 114.5,152.167 122.5,152.167 130.5,153.5C 129.167,153.5 127.833,153.5 126.5,153.5C 126.5,160.833 126.5,168.167 126.5,175.5C 125.833,169.167 125.167,162.833 124.5,156.5C 124.5,155.5 124.5,154.5 124.5,153.5C 118.5,153.5 112.5,153.5 106.5,153.5 Z"/></g>
<g><path style="opacity:1" fill="#e5e5e5" d="M 130.5,153.5 C 130.5,160.833 130.5,168.167 130.5,175.5C 129.167,175.5 127.833,175.5 126.5,175.5C 126.5,168.167 126.5,160.833 126.5,153.5C 127.833,153.5 129.167,153.5 130.5,153.5 Z"/></g>
<g><path style="opacity:1" fill="#e1e1e1" d="M 140.5,152.5 C 151.886,152.048 156.72,157.381 155,168.5C 151.345,175.07 145.845,177.237 138.5,175C 132.957,171.223 131.123,166.056 133,159.5C 134.742,156.254 137.242,153.921 140.5,152.5 Z"/></g>
<g><path style="opacity:1" fill="#e5e5e5" d="M 163.5,162.5 C 163.217,161.711 162.717,161.044 162,160.5C 161.501,165.489 161.334,170.489 161.5,175.5C 160.167,175.5 158.833,175.5 157.5,175.5C 157.5,168.167 157.5,160.833 157.5,153.5C 159.199,153.34 160.866,153.506 162.5,154C 166,158.833 169.5,163.667 173,168.5C 173.499,163.511 173.666,158.511 173.5,153.5C 174.833,153.5 176.167,153.5 177.5,153.5C 177.5,160.833 177.5,168.167 177.5,175.5C 175.712,175.785 174.045,175.452 172.5,174.5C 169.476,170.482 166.476,166.482 163.5,162.5 Z"/></g>
<g><path style="opacity:1" fill="#585858" d="M 16.5,156.5 C 18.8333,156.5 21.1667,156.5 23.5,156.5C 23.5,162.833 23.5,169.167 23.5,175.5C 22.5104,169.69 22.1771,163.69 22.5,157.5C 20.2646,157.795 18.2646,157.461 16.5,156.5 Z"/></g>
<g><path style="opacity:1" fill="#7a7a7a" d="M 47.5,157.5 C 45.1667,157.5 42.8333,157.5 40.5,157.5C 40.5,159.833 40.5,162.167 40.5,164.5C 42.8333,164.5 45.1667,164.5 47.5,164.5C 45.0521,165.473 42.3854,165.806 39.5,165.5C 39.5,162.5 39.5,159.5 39.5,156.5C 42.3854,156.194 45.0521,156.527 47.5,157.5 Z"/></g>
<g><path style="opacity:1" fill="#222222" d="M 47.5,157.5 C 48.9468,158.134 49.6134,159.301 49.5,161C 49.6134,162.699 48.9468,163.866 47.5,164.5C 45.1667,164.5 42.8333,164.5 40.5,164.5C 40.5,162.167 40.5,159.833 40.5,157.5C 42.8333,157.5 45.1667,157.5 47.5,157.5 Z"/></g>
<g><path style="opacity:1" fill="#787878" d="M 89.5,157.5 C 87.5,157.5 85.5,157.5 83.5,157.5C 83.5,162.167 83.5,166.833 83.5,171.5C 82.5128,166.695 82.1795,161.695 82.5,156.5C 85.0593,156.198 87.3926,156.532 89.5,157.5 Z"/></g>
<g><path style="opacity:1" fill="#262626" d="M 89.5,157.5 C 96.6636,160.839 97.3303,165.339 91.5,171C 88.854,171.497 86.1873,171.664 83.5,171.5C 83.5,166.833 83.5,162.167 83.5,157.5C 85.5,157.5 87.5,157.5 89.5,157.5 Z"/></g>
<g><path style="opacity:1" fill="#858585" d="M 124.5,156.5 C 122.735,157.461 120.735,157.795 118.5,157.5C 118.823,163.69 118.49,169.69 117.5,175.5C 117.5,169.167 117.5,162.833 117.5,156.5C 119.833,156.5 122.167,156.5 124.5,156.5 Z"/></g>
<g><path style="opacity:1" fill="#272727" d="M 141.5,156.5 C 148.657,156.155 151.824,159.488 151,166.5C 148.928,171.143 145.428,172.643 140.5,171C 135.003,165.683 135.336,160.85 141.5,156.5 Z"/></g>
<g><path style="opacity:1" fill="#353535" d="M 65.5,158.5 C 67.3299,160.826 68.6633,163.493 69.5,166.5C 67.2573,167.474 64.924,167.808 62.5,167.5C 63.2163,164.402 64.2163,161.402 65.5,158.5 Z"/></g>
<g><path style="opacity:1" fill="#6c6c6c" d="M 163.5,162.5 C 162.833,166.833 162.167,171.167 161.5,175.5C 161.334,170.489 161.501,165.489 162,160.5C 162.717,161.044 163.217,161.711 163.5,162.5 Z"/></g>
<g><path style="opacity:1" fill="#7a7a7a" d="M 45.5,169.5 C 43.8333,169.5 42.1667,169.5 40.5,169.5C 40.7947,171.735 40.4614,173.735 39.5,175.5C 39.5,173.167 39.5,170.833 39.5,168.5C 41.7354,168.205 43.7354,168.539 45.5,169.5 Z"/></g>
</svg>
